<?xml version="1.0" encoding="UTF-8"?>
<!-- Generator: visioncortex VTracer 0.6.3 -->
<svg version="1.1" xmlns="http://www.w3.org/2000/svg" width="1280" height="1240">
<path d="M0 0 C422.4 0 844.8 0 1280 0 C1280 409.2 1280 818.4 1280 1240 C857.6 1240 435.2 1240 0 1240 C0 830.8 0 421.6 0 0 Z " fill="#FCFCFC" transform="translate(0,0)"/>
<path d="M0 0 C10.94 -0.2 21.94 -0.36 32.4 3.19 C35.45 4.14 38.49 4.75 41.62 5.38 C53.84 7.94 64.85 11.62 75.88 17.44 C78.54 18.77 80.98 19.73 83.81 20.56 C88.85 22.09 92.79 24.91 97 28 C97.63 28.46 98.27 28.93 98.92 29.41 C100.21 30.37 101.5 31.34 102.78 32.31 C104.44 33.58 106.13 34.83 107.82 36.06 C119.31 44.52 129.07 53.97 138.62 64.52 C144.65 71.01 151.86 75.58 160.36 78.07 C170.66 81.68 180.38 87.37 189 94 C189.73 94.55 190.46 95.11 191.22 95.68 C193.5 97.42 195.75 99.21 198 101 C199.31 102.03 199.31 102.03 200.66 103.09 C208.67 109.49 216.83 116.03 222 125 C223.29 126.83 224.61 128.64 225.94 130.44 C253.26 167.44 264.19 211.84 264.19 257.36 C264.19 260.03 264.21 262.71 264.22 265.38 C264.26 276.73 263.52 287.76 262 299 C261.82 300.43 261.63 301.85 261.45 303.28 C260.89 307.55 260.29 311.8 259.69 316.06 C259.58 316.81 259.48 317.56 259.37 318.32 C257.81 329.33 255.95 340.24 253.52 351.1 C251.24 360.67 251.24 360.67 253 370 C253.99 370 254.98 370 256 370 C266.06 379.09 266.41 398.19 267.49 410.86 C267.69 413.17 267.9 415.47 268.12 417.77 C269.2 429.82 269.66 441.72 265.62 453.31 C263.78 459.05 262.39 464.67 261.44 470.62 C258.33 489.44 251.98 507.17 243 524 C242.61 524.92 242.21 525.85 241.8 526.8 C239.44 530.99 236.38 533.98 232.94 537.31 C232.3 537.94 231.66 538.58 231.01 539.23 C225.22 544.92 225.22 544.92 221.25 545.19 C217.84 544.99 215.2 544.16 212 543 C211.34 543 210.68 543 210 543 C210.03 543.76 210.07 544.52 210.11 545.31 C210.27 551.4 209.91 556.21 207.71 561.88 C206.99 564.04 206.8 565.8 206.69 568.06 C206.24 572.89 204.62 577.04 202.85 581.53 C200.92 586.43 199.18 591.38 197.54 596.38 C192.18 612.64 186.28 627.94 178 643 C177.22 644.46 176.44 645.91 175.66 647.37 C171.68 654.7 167.35 661.73 162.62 668.6 C161.86 669.72 161.1 670.85 160.35 671.98 C159.42 673.38 158.45 674.76 157.47 676.12 C152.91 682.88 152.18 688.09 152.41 696.13 C152.42 697.25 152.43 698.37 152.44 699.52 C152.47 703.06 152.55 706.59 152.62 710.12 C152.66 712.54 152.68 714.95 152.71 717.36 C152.77 723.24 152.87 729.12 153 735 C153.69 735.2 154.38 735.4 155.09 735.61 C156.45 736 156.45 736 157.84 736.41 C158.73 736.67 159.63 736.93 160.56 737.2 C163.32 738.1 165.38 739.24 167.69 741 C168.51 741.61 169.33 742.22 170.17 742.86 C171.11 743.56 172.04 744.27 173 745 C174.19 745.85 175.38 746.7 176.58 747.55 C183.55 752.52 190.11 757.64 196.34 763.52 C198.41 765.45 200.51 767.3 202.66 769.14 C207.86 773.68 212.7 778.55 217.56 783.44 C218.47 784.34 219.38 785.24 220.31 786.17 C224.85 790.72 229.25 795.32 233.44 800.19 C235.86 802.99 238.4 805.68 240.94 808.38 C246.9 814.79 252.44 821.46 257.58 828.55 C258.04 829.18 258.51 829.8 258.98 830.44 C259.88 831.64 260.76 832.86 261.62 834.09 C267.78 842.31 277.08 844.63 286.75 846.44 C298.33 848.78 309.65 851.74 321 855 C322.2 855.34 322.2 855.34 323.42 855.69 C353.68 864.36 384.62 874.08 413.26 887.23 C415.78 888.34 418.39 889.15 421 890 C423.34 890.99 425.67 891.99 428 893 C429.23 893.53 430.46 894.05 431.69 894.58 C438.2 897.38 444.62 900.26 450.94 903.5 C456.9 906.55 462.97 909.12 469.23 911.52 C472.39 912.76 474.8 913.84 477.46 915.99 C480.86 918.68 484.47 919.98 488.5 921.5 C493.7 923.47 497.72 925.35 502 929 C503.94 929.97 503.94 929.97 505.94 930.69 C515.44 934.71 524.07 941.23 532.44 947.2 C534.33 948.53 536.24 949.83 538.15 951.12 C545.29 955.91 551.71 961.13 558 967 C559.31 968.13 560.62 969.26 561.94 970.38 C570.14 977.54 577.56 985.2 584 994 C584.51 994.67 585.02 995.33 585.55 996.02 C605.4 1021.96 611.72 1048.68 611.41 1080.81 C611.37 1084.78 611.37 1088.76 611.37 1092.73 C611.36 1095.28 611.35 1097.82 611.34 1100.36 C611.33 1101.54 611.33 1102.72 611.33 1103.94 C611.32 1105.04 611.3 1106.14 611.29 1107.28 C611.28 1108.24 611.28 1109.21 611.27 1110.2 C610.97 1113.36 610.04 1116.01 609 1119 C571.89 1119.01 534.79 1119.02 497.68 1119.03 C496.96 1119.03 496.23 1119.03 495.48 1119.03 C417.71 1119.05 339.93 1119.07 262.15 1119.08 C260.43 1119.08 258.7 1119.09 256.97 1119.09 C220.72 1119.09 184.48 1119.1 148.23 1119.1 C130.02 1119.1 111.81 1119.11 93.61 1119.11 C90.86 1119.11 88.11 1119.11 85.37 1119.11 C43.06 1119.12 0.75 1119.12 -41.56 1119.14 C-42.47 1119.14 -43.38 1119.14 -44.32 1119.14 C-59 1119.14 -73.67 1119.15 -88.35 1119.15 C-130.6 1119.16 -172.85 1119.18 -215.1 1119.18 C-215.97 1119.18 -216.84 1119.18 -217.73 1119.18 C-236.79 1119.18 -255.85 1119.19 -274.91 1119.19 C-282.58 1119.19 -290.25 1119.19 -297.91 1119.19 C-298.75 1119.19 -299.59 1119.19 -300.46 1119.19 C-327.53 1119.19 -354.6 1119.2 -381.67 1119.21 C-408.92 1119.22 -436.17 1119.23 -463.43 1119.23 C-467.19 1119.23 -470.95 1119.23 -474.71 1119.23 C-475.45 1119.23 -476.18 1119.23 -476.94 1119.23 C-488.65 1119.23 -500.35 1119.23 -512.05 1119.24 C-523.54 1119.25 -535.04 1119.25 -546.53 1119.24 C-552.68 1119.24 -558.83 1119.24 -564.99 1119.25 C-570.58 1119.26 -576.16 1119.26 -581.75 1119.25 C-583.77 1119.25 -585.79 1119.25 -587.81 1119.25 C-590.53 1119.26 -593.25 1119.26 -595.97 1119.25 C-596.77 1119.25 -597.56 1119.26 -598.38 1119.26 C-603.77 1119.23 -603.77 1119.23 -606 1117 C-606.26 1114.5 -606.26 1114.5 -606.27 1111.29 C-606.28 1110.09 -606.29 1108.89 -606.3 1107.66 C-606.3 1106.35 -606.3 1105.04 -606.3 1103.69 C-606.3 1102.33 -606.31 1100.96 -606.31 1099.6 C-606.32 1096.72 -606.32 1093.85 -606.32 1090.98 C-606.31 1088.06 -606.32 1085.15 -606.34 1082.24 C-606.62 1036.88 -594.33 1006.74 -562.27 974.1 C-561.62 973.45 -560.98 972.8 -560.31 972.12 C-559.4 971.2 -559.4 971.2 -558.48 970.25 C-554.28 966.04 -549.84 962.44 -545 959 C-544.18 958.42 -543.37 957.83 -542.52 957.23 C-541.46 956.5 -541.46 956.5 -540.38 955.75 C-537.5 953.76 -534.66 951.75 -531.85 949.68 C-520.29 941.2 -508.02 934.07 -495.39 927.29 C-493.14 926.08 -490.91 924.82 -488.69 923.56 C-481.22 919.41 -473.57 915.55 -465.75 912.12 C-461.41 910.21 -457.15 908.16 -452.89 906.09 C-440.26 899.96 -427.55 893.91 -414.12 889.73 C-411.94 888.98 -409.9 888.09 -407.81 887.12 C-403.3 885.1 -398.72 883.36 -394.06 881.69 C-388.5 879.67 -382.96 877.61 -377.47 875.42 C-365.81 870.78 -353.94 866.84 -342 863 C-341 862.67 -339.99 862.35 -338.95 862.01 C-322.53 856.71 -305.93 852.29 -289.21 848.08 C-283.7 846.69 -278.19 845.29 -272.7 843.86 C-271.51 843.55 -270.31 843.24 -269.08 842.92 C-266.49 842.15 -264.3 841.39 -262 840 C-261.31 838.68 -260.65 837.34 -260 836 C-258.18 833.79 -256.33 831.64 -254.44 829.5 C-250.63 825.14 -247.01 820.76 -243.62 816.06 C-237.99 808.47 -231.59 801.76 -225 795 C-224.49 794.47 -223.97 793.95 -223.45 793.4 C-219.78 789.65 -216.11 785.91 -212.42 782.19 C-211.16 780.92 -209.9 779.64 -208.65 778.37 C-200.26 769.83 -191.55 762.22 -182 755 C-180.2 753.57 -178.41 752.13 -176.62 750.69 C-173.7 748.34 -170.76 746.05 -167.75 743.81 C-161.56 739.62 -161.56 739.62 -157 734 C-156.9 731.69 -156.87 729.38 -156.87 727.07 C-156.86 726.02 -156.86 726.02 -156.86 724.96 C-156.85 718.78 -156.91 712.6 -156.97 706.43 C-157.01 702.27 -156.96 698.15 -156.77 694 C-156.39 680.72 -161.65 672.9 -169.32 662.37 C-171.8 658.86 -173.93 655.2 -176 651.44 C-176.39 650.73 -176.78 650.03 -177.18 649.3 C-182.16 640.06 -186.62 630.54 -191.12 621.05 C-191.87 619.48 -191.87 619.48 -192.63 617.88 C-193.47 616.13 -194.29 614.36 -195.09 612.59 C-195.58 611.56 -195.58 611.56 -196.07 610.51 C-196.33 609.94 -196.59 609.37 -196.85 608.79 C-198.04 606.76 -198.04 606.76 -200.55 604.72 C-203.58 601.35 -203.78 599.46 -204.15 594.99 C-204.22 594.31 -204.28 593.63 -204.35 592.93 C-204.49 591.48 -204.62 590.03 -204.74 588.57 C-205.07 584.75 -205.47 580.93 -205.89 577.11 C-205.97 576.35 -206.05 575.58 -206.14 574.79 C-207.34 564.35 -209.85 554.22 -212.51 544.07 C-213 542 -213 542 -213 540 C-214.45 540.74 -214.45 540.74 -215.94 541.5 C-220.31 543.33 -224.33 544.01 -229 543 C-231.8 541.41 -233.83 539.36 -236 537 C-236.6 536.36 -237.2 535.72 -237.81 535.07 C-245.11 527 -249.7 518.81 -253.84 508.76 C-255.19 505.56 -256.6 502.38 -258.01 499.2 C-264.62 484.04 -268.85 470.02 -269.8 453.35 C-270.02 449.72 -270.3 446.1 -270.6 442.47 C-272.71 415.85 -272.71 415.85 -271.12 406.81 C-270.96 405.85 -270.8 404.89 -270.63 403.89 C-270 401 -270 401 -268.98 398.09 C-267.87 394.6 -267.5 391.33 -267.12 387.69 C-266.05 378.63 -263.51 371.51 -257 365 C-254.69 364.12 -254.69 364.12 -253 364 C-252.83 359.74 -253.09 356.22 -254.37 352.15 C-255.91 346.86 -256.87 341.39 -258 336 C-258.24 334.87 -258.24 334.87 -258.48 333.72 C-259.53 328.71 -260.57 323.7 -261.59 318.68 C-261.95 316.94 -262.31 315.19 -262.67 313.45 C-265.98 297.63 -267.18 282.37 -267.13 266.22 C-267.13 264.07 -267.13 261.91 -267.14 259.76 C-267.15 244.26 -266.16 229.2 -263 214 C-262.84 213.22 -262.68 212.44 -262.52 211.64 C-260.17 200.43 -257.04 189.56 -253.44 178.69 C-252.87 176.98 -252.87 176.98 -252.3 175.24 C-250.26 169.22 -247.98 163.6 -245 158 C-244.45 156.85 -243.89 155.7 -243.32 154.51 C-239.79 147.19 -235.93 140.48 -231 134 C-230.45 133.25 -229.89 132.51 -229.32 131.74 C-225.52 126.73 -221.43 122.04 -217.18 117.41 C-215.27 115.29 -213.44 113.13 -211.62 110.94 C-202.74 100.81 -190.8 93.3 -179.32 86.39 C-175.17 83.84 -172.28 81.31 -169.32 77.41 C-165.14 72.08 -160.61 67.27 -155.81 62.5 C-154.98 61.67 -154.15 60.84 -153.29 59.99 C-140.91 47.86 -126.91 37.41 -110.78 30.76 C-108.38 29.73 -106.23 28.35 -104 27 C-98.69 24.35 -93.41 23.09 -87.62 21.83 C-85.05 21.24 -82.54 20.61 -80 19.89 C-79.33 19.7 -78.67 19.51 -77.98 19.32 C-76.09 18.78 -74.2 18.22 -72.31 17.67 C-69.06 17.01 -67.15 17.07 -64 18 C-64.76 18.72 -65.53 19.44 -66.31 20.19 C-73.3 27.5 -74.25 35.79 -74.62 45.5 C-74.66 46.32 -74.7 47.14 -74.74 47.99 C-74.84 49.99 -74.92 52 -75 54 C-67.59 55.3 -62.19 54.72 -55.19 52.06 C-53.89 51.59 -53.89 51.59 -52.57 51.11 C-44.23 47.94 -36.82 43.77 -29.78 38.27 C-28 37 -28 37 -26 37 C-25.8 36.46 -25.6 35.93 -25.39 35.38 C-23.43 32.02 -20.62 29.64 -17.81 27 C-11.89 21.27 -7.69 15.42 -4 8 C-3.35 6.75 -3.35 6.75 -2.7 5.47 C-1.77 3.66 -0.88 1.83 0 0 Z " fill="#DADADA" transform="translate(638,63)"/>
<path d="M0 0 C7.24 0.16 11.37 3.75 17 8 C18.19 8.86 19.39 9.71 20.59 10.56 C27.55 15.52 34.11 20.64 40.34 26.52 C42.41 28.45 44.51 30.3 46.66 32.14 C51.86 36.68 56.7 41.55 61.56 46.44 C62.47 47.34 63.38 48.24 64.31 49.17 C68.85 53.72 73.25 58.32 77.44 63.19 C79.86 65.99 82.4 68.68 84.94 71.38 C90.9 77.79 96.44 84.46 101.58 91.55 C102.04 92.18 102.51 92.8 102.98 93.44 C103.88 94.64 104.76 95.86 105.62 97.09 C111.78 105.31 121.08 107.63 130.75 109.44 C142.33 111.78 153.65 114.74 165 118 C166.2 118.34 166.2 118.34 167.42 118.69 C197.68 127.36 228.62 137.08 257.26 150.23 C259.78 151.34 262.39 152.15 265 153 C267.34 153.99 269.67 154.99 272 156 C273.23 156.53 274.46 157.05 275.69 157.58 C282.2 160.38 288.62 163.26 294.94 166.5 C300.9 169.55 306.97 172.12 313.23 174.52 C316.39 175.76 318.8 176.84 321.46 178.99 C324.86 181.68 328.47 182.98 332.5 184.5 C337.7 186.47 341.72 188.35 346 192 C347.94 192.97 347.94 192.97 349.94 193.69 C359.44 197.71 368.07 204.23 376.44 210.2 C378.33 211.53 380.24 212.83 382.15 214.12 C389.29 218.91 395.71 224.13 402 230 C403.31 231.13 404.62 232.26 405.94 233.38 C414.14 240.54 421.56 248.2 428 257 C428.77 258 428.77 258 429.55 259.02 C449.4 284.96 455.72 311.68 455.41 343.81 C455.37 347.78 455.37 351.76 455.37 355.73 C455.36 358.28 455.35 360.82 455.34 363.36 C455.33 364.54 455.33 365.72 455.33 366.94 C455.31 368.59 455.31 368.59 455.29 370.28 C455.28 371.24 455.28 372.21 455.27 373.2 C454.97 376.36 454.04 379.01 453 382 C415.89 382.01 378.79 382.02 341.68 382.03 C340.96 382.03 340.23 382.03 339.48 382.03 C261.71 382.05 183.93 382.07 106.15 382.08 C104.43 382.08 102.7 382.09 100.97 382.09 C64.72 382.09 28.48 382.1 -7.77 382.1 C-25.98 382.1 -44.19 382.11 -62.39 382.11 C-65.14 382.11 -67.89 382.11 -70.63 382.11 C-112.94 382.12 -155.25 382.12 -197.56 382.14 C-198.47 382.14 -199.38 382.14 -200.32 382.14 C-215 382.14 -229.67 382.15 -244.35 382.15 C-286.6 382.16 -328.85 382.18 -371.1 382.18 C-371.97 382.18 -372.84 382.18 -373.73 382.18 C-392.79 382.18 -411.85 382.19 -430.91 382.19 C-438.58 382.19 -446.25 382.19 -453.91 382.19 C-454.75 382.19 -455.59 382.19 -456.46 382.19 C-483.53 382.19 -510.6 382.2 -537.67 382.21 C-564.92 382.22 -592.17 382.23 -619.43 382.23 C-623.19 382.23 -626.95 382.23 -630.71 382.23 C-631.45 382.23 -632.18 382.23 -632.94 382.23 C-644.65 382.23 -656.35 382.23 -668.05 382.24 C-679.54 382.25 -691.04 382.25 -702.53 382.24 C-708.68 382.24 -714.83 382.24 -720.99 382.25 C-726.58 382.26 -732.16 382.26 -737.75 382.25 C-739.77 382.25 -741.79 382.25 -743.81 382.25 C-746.53 382.26 -749.25 382.26 -751.97 382.25 C-752.77 382.25 -753.56 382.26 -754.38 382.26 C-759.77 382.23 -759.77 382.23 -762 380 C-762.26 377.5 -762.26 377.5 -762.27 374.29 C-762.28 373.09 -762.29 371.89 -762.3 370.66 C-762.3 369.35 -762.3 368.04 -762.3 366.69 C-762.3 365.33 -762.31 363.96 -762.31 362.6 C-762.32 359.72 -762.32 356.85 -762.32 353.98 C-762.31 351.06 -762.32 348.15 -762.34 345.24 C-762.62 299.88 -750.33 269.74 -718.27 237.1 C-717.62 236.45 -716.98 235.8 -716.31 235.12 C-715.71 234.51 -715.1 233.89 -714.48 233.25 C-710.28 229.04 -705.84 225.44 -701 222 C-700.18 221.42 -699.37 220.83 -698.52 220.23 C-697.81 219.74 -697.11 219.25 -696.38 218.75 C-693.5 216.76 -690.66 214.75 -687.85 212.68 C-676.29 204.2 -664.02 197.07 -651.39 190.29 C-649.14 189.08 -646.91 187.82 -644.69 186.56 C-637.22 182.41 -629.57 178.55 -621.75 175.12 C-617.41 173.21 -613.15 171.16 -608.89 169.09 C-596.26 162.96 -583.55 156.91 -570.12 152.73 C-567.94 151.98 -565.9 151.09 -563.81 150.12 C-559.3 148.1 -554.72 146.36 -550.06 144.69 C-544.5 142.67 -538.96 140.61 -533.47 138.42 C-521.81 133.78 -509.94 129.84 -498 126 C-497 125.67 -495.99 125.35 -494.95 125.01 C-478.53 119.71 -461.93 115.29 -445.21 111.08 C-439.7 109.69 -434.19 108.29 -428.7 106.86 C-427.51 106.55 -426.31 106.24 -425.08 105.92 C-422.49 105.15 -420.3 104.39 -418 103 C-417.31 101.68 -416.65 100.34 -416 99 C-414.18 96.79 -412.33 94.64 -410.44 92.5 C-406.63 88.14 -403.01 83.76 -399.62 79.06 C-393.99 71.47 -387.59 64.76 -381 58 C-380.49 57.47 -379.97 56.95 -379.45 56.4 C-375.78 52.65 -372.11 48.91 -368.42 45.19 C-367.16 43.92 -365.9 42.64 -364.65 41.37 C-356.26 32.83 -347.55 25.22 -338 18 C-336.2 16.57 -334.41 15.13 -332.62 13.69 C-320.94 4.33 -320.94 4.33 -316 2 C-313.37 4.63 -313.75 6.52 -313.72 10.1 C-313.72 10.95 -313.73 11.8 -313.73 12.68 C-313.72 14.03 -313.72 14.03 -313.71 15.41 C-313.7 17.37 -313.7 19.32 -313.7 21.28 C-313.69 24.38 -313.67 27.48 -313.65 30.57 C-313.6 39.38 -313.57 48.19 -313.54 57 C-313.53 62.38 -313.5 67.77 -313.46 73.15 C-313.45 75.2 -313.44 77.26 -313.44 79.31 C-313.44 82.18 -313.42 85.05 -313.4 87.93 C-313.41 88.78 -313.41 89.62 -313.41 90.5 C-313.31 98.93 -309.47 102.89 -303.59 108.7 C-298.98 113.17 -294.01 117.04 -288.77 120.75 C-286.76 122.17 -284.77 123.61 -282.78 125.05 C-281.29 126.12 -279.8 127.18 -278.31 128.25 C-277.62 128.75 -276.94 129.24 -276.23 129.75 C-271.97 132.76 -267.63 135.37 -263.05 137.85 C-260.4 139.33 -257.97 141.05 -255.5 142.81 C-250.64 146.12 -245.72 148.65 -240.38 151.06 C-233.67 154.11 -227.86 157.5 -222 162 C-220.73 162.92 -219.46 163.84 -218.19 164.75 C-205.03 174.3 -195.11 184.58 -186 198 C-185.45 198.78 -184.89 199.56 -184.32 200.37 C-176.46 211.62 -170.61 224.11 -166 237 C-165.73 237.74 -165.47 238.48 -165.19 239.24 C-161.59 249.4 -159.22 259.09 -158.32 269.85 C-158.35 272.86 -158.35 272.86 -157 274 C-157.06 272.27 -157.06 272.27 -157.12 270.5 C-157.12 266.06 -156.19 262.24 -155 258 C-154.71 256.77 -154.42 255.53 -154.12 254.26 C-153.05 249.98 -151.61 245.92 -150 241.81 C-149.7 241.05 -149.4 240.29 -149.1 239.51 C-146.58 233.19 -143.78 227.02 -140.88 220.88 C-140.26 219.58 -140.26 219.58 -139.64 218.26 C-128.11 194.3 -108.08 174.55 -86.36 159.68 C-83.95 158.01 -83.95 158.01 -81.64 156.01 C-78.08 153.3 -74.2 151.53 -70.17 149.64 C-66.35 147.81 -63.27 145.68 -60 143 C-58.59 142.27 -57.15 141.58 -55.69 140.94 C-35.2 130.97 -12.44 114.42 -2 94 C-1.07 91.2 -0.88 89.53 -0.88 86.63 C-0.88 85.73 -0.88 84.83 -0.88 83.9 C-0.89 82.91 -0.89 81.92 -0.9 80.89 C-0.9 79.32 -0.9 79.32 -0.91 77.71 C-0.95 68.73 -1.11 59.74 -1.29 50.76 C-1.32 49.36 -1.34 47.95 -1.37 46.54 C-1.48 40.78 -1.59 35.01 -1.72 29.25 C-1.8 25.66 -1.87 22.08 -1.94 18.49 C-1.98 16.49 -2.02 14.48 -2.07 12.48 C-2.09 11.28 -2.11 10.07 -2.14 8.83 C-2.16 7.78 -2.18 6.72 -2.2 5.63 C-2 3 -2 3 0 0 Z " fill="#9B9B9B" transform="translate(794,800)"/>
<path d="M0 0 C10.94 -0.2 21.94 -0.36 32.4 3.19 C35.45 4.14 38.49 4.75 41.62 5.38 C53.84 7.94 64.85 11.62 75.88 17.44 C78.54 18.77 80.98 19.73 83.81 20.56 C88.85 22.09 92.79 24.91 97 28 C97.63 28.46 98.27 28.93 98.92 29.41 C100.21 30.37 101.5 31.34 102.78 32.31 C104.44 33.58 106.13 34.83 107.82 36.06 C119.31 44.52 129.07 53.97 138.62 64.52 C144.65 71.01 151.86 75.58 160.36 78.07 C170.66 81.68 180.38 87.37 189 94 C189.73 94.55 190.46 95.11 191.22 95.68 C193.5 97.42 195.75 99.21 198 101 C198.88 101.69 199.75 102.38 200.66 103.09 C208.67 109.49 216.83 116.03 222 125 C223.29 126.83 224.61 128.64 225.94 130.44 C253.26 167.44 264.19 211.84 264.19 257.36 C264.19 260.03 264.21 262.71 264.22 265.38 C264.26 276.73 263.52 287.76 262 299 C261.82 300.43 261.63 301.85 261.45 303.28 C260.89 307.55 260.29 311.8 259.69 316.06 C259.58 316.81 259.48 317.56 259.37 318.33 C257.83 329.1 256.05 339.77 253.7 350.39 C252.65 355.22 251.87 359.96 251.37 364.88 C250.31 375.26 247.99 385.11 245.31 395.19 C244.86 396.92 244.41 398.65 243.96 400.38 C240.71 412.72 237.17 424.93 233 437 C232.71 437.84 232.42 438.69 232.12 439.56 C230.67 443.78 229.2 447.99 227.7 452.2 C226.54 455.44 225.44 458.69 224.37 461.96 C224.1 462.74 223.84 463.53 223.57 464.34 C223.08 465.82 222.6 467.31 222.13 468.8 C220.48 473.68 220.48 473.68 217.82 475.46 C217.22 475.64 216.62 475.82 216 476 C209.1 471.67 207.25 465.59 205 458 C202.38 445.65 202.73 433.04 202.76 420.48 C202.76 416.73 202.75 412.97 202.74 409.22 C202.7 398.55 202.68 387.88 202.69 377.21 C202.7 370.66 202.68 364.11 202.65 357.56 C202.64 355.07 202.64 352.59 202.65 350.11 C202.75 327.31 198.36 315.97 182.92 299.3 C162.3 276.95 146.02 238.01 142.46 207.87 C142.08 204.97 142.08 204.97 141.05 202.18 C136.76 189.16 136.3 174.6 136 161 C135.97 159.87 135.95 158.73 135.92 157.56 C135.84 153.77 135.79 149.98 135.75 146.19 C135.73 145 135.71 143.8 135.68 142.58 C135.65 133.97 136.9 126.33 139 118 C138.54 118.53 138.07 119.06 137.59 119.61 C136.39 120.98 135.19 122.36 133.98 123.73 C132.76 125.13 131.55 126.54 130.36 127.96 C121.61 138.35 112.46 145.63 100 151 C99.13 151.39 98.26 151.78 97.37 152.18 C81.18 158.75 63.76 159.61 46.53 159.76 C44.43 159.79 42.33 159.82 40.24 159.86 C34.77 159.95 29.3 160.02 23.83 160.09 C15.08 160.19 6.33 160.32 -2.42 160.46 C-5.43 160.51 -8.44 160.54 -11.46 160.57 C-23.74 160.73 -35.81 161.57 -48 163 C-49.3 163.15 -50.6 163.3 -51.95 163.45 C-77.5 166.42 -105.17 170.89 -126 187 C-127 187.72 -128 188.44 -129.02 189.19 C-146.33 201.93 -161.17 217.43 -172 236 C-172.6 236.99 -172.6 236.99 -173.22 238 C-183.78 255.38 -192.32 278.28 -193.69 298.67 C-194 301 -194 301 -194.93 304.46 C-196.41 310.18 -196.9 316.01 -197.5 321.88 C-197.76 324.29 -198.02 326.71 -198.27 329.13 C-198.4 330.31 -198.52 331.48 -198.65 332.69 C-199.03 336.32 -199.45 339.94 -199.87 343.55 C-201.31 356.02 -202.04 368.27 -201.94 380.81 C-201.86 393.04 -202.3 405.22 -202.88 417.44 C-202.91 418.31 -202.95 419.18 -202.99 420.08 C-203.43 429.71 -204.05 439.3 -205 448.89 C-205.08 449.72 -205.16 450.54 -205.24 451.39 C-206.33 461.89 -207.94 469.65 -216 477 C-217.32 478.02 -218.65 479.03 -220 480 C-220.5 478.51 -220.5 478.51 -221 477 C-221.66 477 -222.32 477 -223 477 C-225.21 470.14 -227.21 463.4 -228.51 456.31 C-228.99 454.05 -229.65 451.98 -230.44 449.81 C-231.72 446.15 -232.5 442.57 -233.19 438.75 C-234.8 430.26 -237.14 422.01 -239.48 413.7 C-241.88 405.14 -244.11 396.59 -246.06 387.93 C-247.28 382.67 -248.79 377.49 -250.34 372.32 C-251.63 367.88 -252.38 363.6 -252.78 358.98 C-253.13 355.88 -254.12 352.99 -255 350 C-256.06 345.35 -257.02 340.67 -258 336 C-258.24 334.87 -258.24 334.87 -258.48 333.72 C-259.53 328.71 -260.57 323.7 -261.59 318.68 C-261.95 316.94 -262.31 315.19 -262.67 313.45 C-265.98 297.63 -267.18 282.37 -267.13 266.22 C-267.13 264.07 -267.13 261.91 -267.14 259.76 C-267.15 244.26 -266.16 229.2 -263 214 C-262.84 213.22 -262.68 212.44 -262.52 211.64 C-260.17 200.43 -257.04 189.56 -253.44 178.69 C-252.87 176.98 -252.87 176.98 -252.3 175.24 C-250.26 169.22 -247.98 163.6 -245 158 C-244.45 156.85 -243.89 155.7 -243.32 154.51 C-239.79 147.19 -235.93 140.48 -231 134 C-230.45 133.25 -229.89 132.51 -229.32 131.74 C-225.52 126.73 -221.43 122.04 -217.18 117.41 C-215.27 115.29 -213.44 113.13 -211.62 110.94 C-202.74 100.81 -190.8 93.3 -179.32 86.39 C-175.17 83.84 -172.28 81.31 -169.32 77.41 C-165.14 72.08 -160.61 67.27 -155.81 62.5 C-154.98 61.67 -154.15 60.84 -153.29 59.99 C-140.91 47.86 -126.91 37.41 -110.78 30.76 C-108.38 29.73 -106.23 28.35 -104 27 C-98.69 24.35 -93.41 23.09 -87.62 21.83 C-85.05 21.24 -82.54 20.61 -80 19.89 C-79.33 19.7 -78.67 19.51 -77.98 19.32 C-76.09 18.78 -74.2 18.22 -72.31 17.67 C-69.06 17.01 -67.15 17.07 -64 18 C-65.14 19.08 -65.14 19.08 -66.31 20.19 C-73.3 27.5 -74.25 35.79 -74.62 45.5 C-74.68 46.73 -74.68 46.73 -74.74 47.99 C-74.84 49.99 -74.92 52 -75 54 C-67.59 55.3 -62.19 54.72 -55.19 52.06 C-54.32 51.75 -53.46 51.43 -52.57 51.11 C-44.23 47.94 -36.82 43.77 -29.78 38.27 C-28 37 -28 37 -26 37 C-25.8 36.46 -25.6 35.93 -25.39 35.38 C-23.43 32.02 -20.62 29.64 -17.81 27 C-11.89 21.27 -7.69 15.42 -4 8 C-3.35 6.75 -3.35 6.75 -2.7 5.47 C-1.77 3.66 -0.88 1.83 0 0 Z " fill="#9B9B9B" transform="translate(638,63)"/>
<path d="M0 0 C0.33 0 0.66 0 1 0 C1.85 5.89 2.13 11.58 2.1 17.53 C2.1 18.85 2.1 18.85 2.09 20.19 C2.09 22.96 2.08 25.73 2.06 28.5 C2.06 30.39 2.05 32.28 2.05 34.17 C2.04 38.78 2.02 43.39 2 48 C2.99 48.33 3.98 48.66 5 49 C4.75 49.8 4.75 49.8 4.5 50.63 C3.9 53.49 3.92 56.07 3.98 59 C4 60.21 4.02 61.42 4.04 62.67 C4.08 64.64 4.08 64.64 4.12 66.65 C4.15 68.03 4.17 69.41 4.19 70.79 C4.26 74.43 4.32 78.08 4.39 81.72 C4.51 87.47 4.61 93.23 4.71 98.99 C4.73 100.39 4.76 101.79 4.78 103.19 C4.99 114.79 5.07 126.39 5 138 C0.2 139.67 -4.5 141.27 -9.52 142.13 C-10.48 142.3 -11.44 142.47 -12.43 142.64 C-13.4 142.8 -14.37 142.96 -15.38 143.12 C-16.34 143.29 -17.3 143.46 -18.3 143.64 C-33.43 146.21 -48.68 146.55 -64 147 C-64.83 147.02 -65.66 147.05 -66.51 147.08 C-89.13 147.66 -111.03 145.27 -132.97 139.76 C-135.71 139.07 -138.46 138.42 -141.21 137.78 C-162.98 132.56 -184.82 123.25 -203.64 111.14 C-206.15 109.54 -208.66 108.01 -211.23 106.51 C-221.97 100.21 -231.58 93.13 -241 85 C-241.57 84.53 -242.13 84.05 -242.71 83.56 C-249.42 77.86 -255.63 71.63 -261.87 65.42 C-263.2 64.11 -264.53 62.8 -265.87 61.49 C-277.36 50.25 -286.85 38.68 -294.56 24.5 C-294.99 23.75 -295.41 23.01 -295.85 22.24 C-298.1 18.15 -299.57 14.73 -300 10 C-299.34 10 -298.68 10 -298 10 C-296.91 11.48 -295.88 13.02 -294.88 14.56 C-281.26 33.68 -260.57 47.41 -240 58 C-239.34 58.35 -238.68 58.7 -238 59.06 C-193.21 82.7 -143.57 85.11 -95.83 70.45 C-91.51 69.07 -87.25 67.57 -83 66 C-81.46 65.44 -81.46 65.44 -79.9 64.86 C-65.33 59.14 -51.52 51.35 -39 42 C-37.4 40.83 -37.4 40.83 -35.77 39.64 C-24.87 31.54 -14.61 22.54 -6 12 C-4.86 10.73 -4.86 10.73 -3.69 9.44 C-1.54 6.34 -0.86 3.65 0 0 Z " fill="#C1C1C1" transform="translate(789,750)"/>
<path d="M0 0 C0.58 0.16 1.17 0.32 1.77 0.49 C5.23 1.28 8.71 1.14 12.25 1.12 C13.09 1.13 13.94 1.13 14.81 1.13 C17.66 1.13 20.52 1.13 23.37 1.12 C25.44 1.12 27.51 1.12 29.57 1.13 C35.29 1.13 41.01 1.13 46.73 1.12 C52.94 1.12 59.14 1.12 65.35 1.12 C76.24 1.12 87.13 1.12 98.02 1.12 C109.71 1.11 121.4 1.11 133.09 1.11 C134.2 1.11 134.2 1.11 135.33 1.11 C139.09 1.11 142.85 1.11 146.61 1.11 C173.85 1.12 201.09 1.11 228.32 1.11 C255.31 1.1 282.29 1.1 309.27 1.09 C310.52 1.09 310.52 1.09 311.81 1.09 C319.45 1.09 327.1 1.09 334.75 1.09 C353.77 1.09 372.78 1.09 391.8 1.09 C392.66 1.09 393.53 1.09 394.42 1.09 C436.56 1.09 478.7 1.08 520.84 1.08 C535.47 1.07 550.09 1.07 564.72 1.07 C565.63 1.07 566.54 1.07 567.47 1.07 C609.63 1.06 651.78 1.06 693.94 1.06 C696.68 1.05 699.41 1.05 702.15 1.05 C720.29 1.05 738.42 1.05 756.55 1.05 C792.64 1.05 828.72 1.05 864.8 1.04 C866.52 1.04 868.24 1.04 869.96 1.04 C947.33 1.04 1024.71 1.03 1102.08 1.02 C1102.81 1.02 1103.53 1.02 1104.28 1.02 C1140.52 1.01 1176.76 1.01 1213 1 C1213 1.99 1213 2.98 1213 4 C812.71 4 412.42 4 0 4 C0 2.68 0 1.36 0 0 Z " fill="#7C7E7D" transform="translate(34,1178)"/>
<path d="M0 0 C0 0.66 0 1.32 0 2 C-1.52 2.53 -1.52 2.53 -3.07 3.07 C-6.84 4.38 -10.6 5.7 -14.36 7.02 C-15.99 7.59 -17.62 8.16 -19.25 8.72 C-21.59 9.54 -23.93 10.36 -26.27 11.18 C-27 11.43 -27.73 11.68 -28.48 11.94 C-31.62 13.05 -34.21 14.14 -37 16 C-38.97 16.65 -40.95 17.25 -42.94 17.81 C-48.48 19.47 -53.75 21.45 -59.05 23.75 C-61.94 24.97 -64.86 26.07 -67.8 27.16 C-71.91 28.73 -75.95 30.46 -80 32.19 C-80.92 32.58 -81.84 32.97 -82.79 33.38 C-89.1 36.11 -95.26 39.05 -101.38 42.18 C-106.75 44.93 -112.22 47.29 -117.79 49.61 C-121.65 51.28 -125.33 53.19 -129.01 55.21 C-131 56 -131 56 -134 55 C-133 52 -133 52 -130 50.46 C-128.67 49.9 -127.34 49.35 -126 48.81 C-124.54 48.2 -123.07 47.58 -121.61 46.96 C-120.85 46.64 -120.09 46.32 -119.31 45.99 C-115.58 44.39 -111.91 42.67 -108.25 40.94 C-107.53 40.6 -106.82 40.26 -106.08 39.91 C-102.02 37.99 -98 35.99 -94 33.94 C-84.42 29.1 -74.37 24.92 -64.12 21.73 C-61.94 20.98 -59.9 20.09 -57.81 19.12 C-53.3 17.1 -48.72 15.36 -44.06 13.69 C-37.53 11.31 -31.03 8.86 -24.56 6.31 C-19.44 4.31 -14.31 2.33 -9.12 0.5 C-8.22 0.18 -7.32 -0.14 -6.38 -0.47 C-3.84 -1.04 -2.43 -0.86 0 0 Z " fill="#858786" transform="translate(288,931)"/>
<path d="M0 0 C11.24 6.88 21.6 14.44 31.23 23.45 C33.35 25.4 35.49 27.28 37.67 29.15 C42.86 33.68 47.7 38.56 52.56 43.44 C53.92 44.79 53.92 44.79 55.31 46.17 C59.85 50.72 64.25 55.32 68.44 60.19 C70.39 62.46 72.43 64.64 74.48 66.82 C79.96 72.66 85.12 78.64 90 85 C90.84 86.06 91.68 87.12 92.52 88.18 C93.37 89.26 94.22 90.35 95.06 91.44 C95.84 92.43 96.61 93.41 97.41 94.43 C97.93 95.28 98.46 96.13 99 97 C98.5 98.49 98.5 98.49 98 100 C89.49 89.68 89.49 89.68 85.5 84.44 C76.92 73.4 66.85 63.75 56.94 53.92 C54.62 51.62 52.31 49.31 50 47 C49.33 46.34 48.66 45.69 47.97 45.01 C44.84 41.92 41.8 38.83 39 35.44 C36.27 32.17 33.22 29.48 29.97 26.74 C28.16 25.14 26.61 23.48 25 21.69 C20.93 17.48 15.91 14.7 10.86 11.82 C5.91 8.9 2.48 5.57 -1 1 C-0.67 0.67 -0.34 0.34 0 0 Z " fill="#7C7E7D" transform="translate(803,803)"/>
<path d="M0 0 C15.32 1.23 30.29 5.8 45 10 C45.81 10.23 46.62 10.46 47.46 10.7 C62.29 14.95 76.92 19.87 91.53 24.84 C93.83 25.61 96.15 26.35 98.47 27.05 C99.54 27.38 100.61 27.71 101.72 28.05 C102.67 28.34 103.61 28.62 104.59 28.91 C107.35 30.16 108.41 31.45 110 34 C105.24 33.43 100.96 32.47 96.42 30.93 C95.19 30.51 93.95 30.09 92.68 29.66 C92.04 29.44 91.4 29.22 90.74 28.99 C87.37 27.84 84 26.71 80.63 25.57 C79.97 25.35 79.3 25.12 78.62 24.89 C61.86 19.23 44.92 13.79 27.71 9.68 C25.68 9.17 23.66 8.6 21.64 8.01 C16.63 6.62 11.55 5.78 6.43 4.88 C3.17 4.04 1.45 3.23 -1 1 C-0.67 0.67 -0.34 0.34 0 0 Z " fill="#7E807F" transform="translate(914,908)"/>
<path d="M0 0 C2.06 0.44 2.06 0.44 4 1 C3.07 1.52 2.13 2.04 1.17 2.58 C-2.42 4.59 -6 6.61 -9.58 8.64 C-11.2 9.55 -12.82 10.46 -14.45 11.36 C-23.4 16.34 -31.8 21.22 -39.55 27.97 C-42.01 30.01 -44.51 31.61 -47.25 33.25 C-59.28 40.7 -69.27 50.88 -78.59 61.41 C-80.5 63.57 -82.45 65.69 -84.39 67.82 C-86.26 69.88 -88.13 71.94 -90 74 C-90 68.05 -87.92 65.41 -83.88 61.19 C-83.35 60.63 -82.82 60.07 -82.28 59.5 C-80.53 57.65 -78.77 55.82 -77 54 C-76.37 53.35 -75.74 52.7 -75.09 52.03 C-73.15 50.03 -71.2 48.04 -69.25 46.06 C-68.35 45.14 -68.35 45.14 -67.43 44.2 C-63.25 40.01 -58.82 36.43 -54 33 C-53.18 32.42 -52.37 31.83 -51.52 31.23 C-50.81 30.74 -50.11 30.25 -49.38 29.75 C-46.5 27.76 -43.66 25.75 -40.85 23.68 C-34.39 18.94 -27.82 14.53 -20.94 10.44 C-19.87 9.79 -19.87 9.79 -18.77 9.14 C-15.15 7.02 -12.19 5.65 -8 5 C-5.2 3.68 -2.2 2.2 0 0 Z " fill="#8D8E8E" transform="translate(147,989)"/>
<path d="M0 0 C0.99 0.66 1.98 1.32 3 2 C-3.21 7.21 -9.54 12.18 -16.06 17 C-22.37 21.69 -28.27 26.62 -34 32 C-35.35 33.21 -35.35 33.21 -36.72 34.45 C-44.16 41.15 -51.28 48.18 -58.38 55.25 C-58.85 55.72 -59.32 56.19 -59.81 56.68 C-65.43 62.27 -70.89 67.94 -76 74 C-76 73.01 -76 72.02 -76 71 C-75 70 -74 69 -73 68 C-72.81 67.08 -72.81 67.08 -72.61 66.13 C-71.84 63.45 -70.67 62.29 -68.71 60.32 C-68.02 59.62 -67.32 58.91 -66.6 58.19 C-65.84 57.43 -65.08 56.68 -64.3 55.9 C-63.51 55.11 -62.73 54.32 -61.92 53.51 C-60.24 51.83 -58.57 50.16 -56.89 48.49 C-54.36 45.98 -51.84 43.45 -49.33 40.92 C-40.34 31.92 -31.22 23.59 -21 16 C-19.2 14.57 -17.41 13.13 -15.62 11.69 C-10.54 7.61 -5.42 3.61 0 0 Z " fill="#898B8A" transform="translate(477,802)"/>
<path d="M0 0 C5.21 2.78 9.52 5.9 13.94 9.81 C14.86 10.62 14.86 10.62 15.8 11.44 C17 12.49 18.21 13.55 19.41 14.6 C20.69 15.73 21.99 16.84 23.3 17.95 C32.13 25.47 40.14 33.63 47 43 C47.51 43.67 48.02 44.33 48.55 45.02 C59.61 59.47 70.04 76.38 71 95 C67.45 92.31 67.25 89.23 66.44 85 C63.42 71.35 56.13 58.5 47 48 C46.4 47.22 45.79 46.43 45.17 45.62 C40.34 39.42 35.03 33.82 29.5 28.25 C28.8 27.54 28.1 26.83 27.38 26.1 C23.14 21.89 18.74 18.11 13.98 14.5 C11.79 12.84 9.73 11.08 7.69 9.25 C5.76 7.52 3.92 5.94 1.77 4.48 C1.19 3.99 0.6 3.5 0 3 C0 2.01 0 1.02 0 0 Z " fill="#7C7E7D" transform="translate(1175,1014)"/>
<path d="M0 0 C1.46 4.38 -0.68 7.15 -2.62 11.06 C-2.97 11.78 -3.31 12.49 -3.67 13.22 C-5.16 16.3 -6.66 19.35 -8.24 22.38 C-11.48 28.63 -13.93 34.94 -16.12 41.62 C-16.47 42.67 -16.82 43.72 -17.18 44.8 C-19.52 52.04 -21.21 59.14 -22.42 66.64 C-23.09 70.52 -24.16 74.14 -25.37 77.87 C-26.27 80.9 -26.66 83.87 -27 87 C-27.33 87 -27.66 87 -28 87 C-29.63 63.45 -20.98 36.58 -10 16 C-9.48 14.92 -8.97 13.84 -8.44 12.73 C-7.96 11.75 -7.49 10.76 -7 9.75 C-6.53 8.75 -6.05 7.76 -5.56 6.73 C-3.99 3.99 -2.33 2.11 0 0 Z " fill="#858786" transform="translate(403,205)"/>
<path d="M0 0 C0.5 0.99 0.5 0.99 1 2 C-3.32 9.02 -8.35 15.01 -14 21 C-14.63 21.7 -15.25 22.41 -15.9 23.13 C-21.43 29.09 -27.95 33.02 -35 37 C-35.83 37.47 -36.66 37.94 -37.51 38.43 C-39.62 39.56 -39.62 39.56 -43 41 C-43.99 40.67 -44.98 40.34 -46 40 C-43.67 36.51 -42.13 35.91 -38.38 34.19 C-33.63 31.91 -29.58 29.44 -25.52 26.1 C-24 25 -24 25 -22 25 C-21.73 24.4 -21.46 23.81 -21.18 23.19 C-20 21 -18.85 19.65 -17.07 17.94 C-16.5 17.39 -15.93 16.84 -15.35 16.27 C-14.16 15.14 -12.97 14 -11.79 12.87 C-8.6 9.77 -6.18 6.92 -4 3 C-1.81 1.19 -1.81 1.19 0 0 Z " fill="#878888" transform="translate(634,75)"/>
<path d="M0 0 C1.49 0.99 1.49 0.99 3 2 C3.36 4.37 3.36 4.37 3.34 7.37 C3.34 8.49 3.34 9.61 3.34 10.76 C3.32 11.98 3.31 13.19 3.29 14.45 C3.29 15.69 3.28 16.93 3.28 18.2 C3.27 21.5 3.24 24.8 3.21 28.1 C3.18 31.46 3.16 34.83 3.15 38.19 C3.11 44.79 3.06 51.4 3 58 C2.67 58 2.34 58 2 58 C1.95 57.34 1.9 56.67 1.85 55.99 C1.78 55.11 1.7 54.22 1.62 53.31 C1.56 52.44 1.49 51.57 1.41 50.68 C1.13 48.01 1.13 48.01 -0.01 45.81 C-1.25 42.3 -1.27 39.06 -1.23 35.39 C-1.23 34.3 -1.23 34.3 -1.23 33.19 C-1.23 31.66 -1.22 30.12 -1.21 28.59 C-1.19 26.27 -1.19 23.95 -1.19 21.63 C-1.17 14.36 -1.03 7.21 0 0 Z " fill="#7D7F7E" transform="translate(372,301)"/>
<path d="M0 0 C0.33 0 0.66 0 1 0 C0.4 19.7 -3.18 39.15 -7.34 58.38 C-8.62 64.46 -9.36 70.37 -9.67 76.59 C-10 79 -10 79 -12 81 C-12.28 69.55 -11.31 59.28 -8.56 48.12 C-6.93 41.27 -6.04 34.38 -5.13 27.4 C-4.33 21.33 -3.44 15.28 -2.38 9.25 C-2.25 8.54 -2.13 7.83 -2 7.1 C-1.13 2.26 -1.13 2.26 0 0 Z " fill="#7F8180" transform="translate(899,355)"/>
<path d="M0 0 C16.35 1.39 33.48 6.3 48 14 C48 14.66 48 15.32 48 16 C48.66 16.66 49.32 17.32 50 18 C45.67 17.74 43.12 17.34 39.75 14.56 C36 11.63 32.47 11.13 27.83 10.46 C24.25 9.88 20.93 8.81 17.48 7.72 C14.92 6.98 12.38 6.47 9.75 6 C5.76 5.26 2.54 4.05 -1 2 C-0.67 1.34 -0.34 0.68 0 0 Z " fill="#808281" transform="translate(666,66)"/>
<path d="M0 0 C0.66 0.33 1.32 0.66 2 1 C0.46 2.13 -1.08 3.25 -2.62 4.38 C-3.63 5.11 -4.63 5.84 -5.67 6.6 C-7.9 8.22 -10.15 9.81 -12.43 11.37 C-27.16 21.57 -39.6 33.67 -50.46 47.98 C-52.56 50.73 -54.77 53.36 -57 56 C-57.67 54.29 -57.67 54.29 -58 52 C-56.93 49.71 -56.93 49.71 -55.31 47.38 C-54.79 46.6 -54.27 45.82 -53.74 45.02 C-51.89 42.87 -50.5 42.23 -48 41 C-46.51 39.51 -45.07 37.96 -43.69 36.38 C-42.89 35.47 -42.09 34.57 -41.27 33.64 C-39.94 32.1 -38.63 30.54 -37.35 28.95 C-28.16 17.68 -15.08 9.82 -3 2 C-2.01 1.34 -1.02 0.68 0 0 Z " fill="#7C7E7D" transform="translate(463,148)"/>
<path d="M0 0 C0 0.66 0 1.32 0 2 C-1.52 2.53 -1.52 2.53 -3.07 3.07 C-6.84 4.38 -10.6 5.7 -14.36 7.02 C-15.99 7.59 -17.62 8.16 -19.25 8.72 C-21.59 9.54 -23.93 10.36 -26.27 11.18 C-27.36 11.56 -27.36 11.56 -28.48 11.94 C-31.62 13.05 -34.21 14.14 -37 16 C-38.71 16.44 -40.45 16.81 -42.19 17.12 C-43.09 17.29 -43.99 17.46 -44.92 17.63 C-45.61 17.75 -46.29 17.88 -47 18 C-46.67 17.34 -46.34 16.68 -46 16 C-45.34 16 -44.68 16 -44 16 C-43.67 15.01 -43.34 14.02 -43 13 C-41 12.02 -41 12.02 -38.34 11.14 C-37.34 10.81 -36.35 10.47 -35.32 10.12 C-34.22 9.75 -33.13 9.38 -32 9 C-29.64 8.14 -27.29 7.26 -24.94 6.39 C-22.48 5.49 -20.02 4.59 -17.56 3.69 C-16.93 3.45 -16.31 3.22 -15.66 2.98 C-13.82 2.29 -11.97 1.62 -10.13 0.95 C-9.05 0.55 -7.96 0.15 -6.85 -0.26 C-4.01 -1 -2.7 -1.04 0 0 Z " fill="#838584" transform="translate(288,931)"/>
<path d="M0 0 C2.29 2.08 3.56 3.83 4.68 6.7 C4.97 7.43 5.26 8.15 5.55 8.9 C5.99 10.06 5.99 10.06 6.44 11.25 C6.75 12.06 7.05 12.87 7.37 13.7 C11.54 24.89 14.14 36.15 16.25 47.88 C16.43 48.84 16.6 49.8 16.78 50.79 C17.78 56.62 18.17 62.09 18 68 C15.25 65.25 15.2 62.33 14.62 58.62 C14.36 57.07 14.1 55.52 13.84 53.97 C13.63 52.75 13.63 52.75 13.43 51.5 C10.93 36.79 7.58 22.75 2.15 8.81 C0 3.28 0 3.28 0 0 Z " fill="#808180" transform="translate(882,227)"/>
<path d="M0 0 C1.8 1.34 3.6 2.68 5.39 4.04 C7.29 5.47 9.2 6.89 11.11 8.31 C22.61 16.92 33.33 26.73 41 39 C38 39 38 39 35.62 36.69 C34.7 35.65 33.78 34.61 32.88 33.56 C31.88 32.45 30.89 31.34 29.89 30.23 C29.4 29.68 28.91 29.13 28.4 28.56 C22.27 21.73 15.78 16.14 8.31 10.85 C7.55 10.24 6.78 9.63 6 9 C6 8.34 6 7.68 6 7 C5.38 6.71 4.76 6.42 4.12 6.12 C2 5 2 5 0 3 C0 2.01 0 1.02 0 0 Z " fill="#7C7E7D" transform="translate(739,94)"/>
<path d="M0 0 C0.66 0 1.32 0 2 0 C2.78 2.77 3.13 5.25 3.15 8.12 C3.15 8.92 3.16 9.72 3.16 10.55 C3.17 11.41 3.17 12.27 3.17 13.15 C3.17 14.04 3.17 14.93 3.18 15.85 C3.18 17.73 3.19 19.61 3.19 21.49 C3.19 24.36 3.21 27.23 3.22 30.09 C3.23 31.92 3.23 33.76 3.23 35.59 C3.24 36.44 3.24 37.29 3.25 38.17 C3.23 42.85 2.8 46.6 1 51 C0.67 51 0.34 51 0 51 C0 34.17 0 17.34 0 0 Z " fill="#7E807F" transform="translate(899,299)"/>
<path d="M0 0 C1.23 3.69 0.61 4.62 -0.75 8.19 C-2.5 13.15 -3.67 17.96 -4.56 23.12 C-5.49 28.51 -6.69 33.67 -8.37 38.87 C-9.27 41.9 -9.66 44.87 -10 48 C-10.33 48 -10.66 48 -11 48 C-11.87 35.35 -9.36 24.14 -6 12 C-5.76 11.08 -5.52 10.16 -5.27 9.21 C-5.02 8.31 -4.77 7.41 -4.52 6.49 C-4.19 5.27 -4.19 5.27 -3.85 4.02 C-3 2 -3 2 0 0 Z " fill="#818382" transform="translate(386,244)"/>
<path d="M0 0 C-2.59 4.87 -7.2 6.04 -12.06 7.94 C-13.78 8.63 -15.5 9.33 -17.22 10.02 C-18.05 10.36 -18.87 10.69 -19.72 11.04 C-23.33 12.56 -26.77 14.37 -30.19 16.29 C-32 17 -32 17 -35 16 C-34 13 -34 13 -30.93 11.42 C-29.58 10.85 -28.23 10.3 -26.88 9.75 C-25.42 9.14 -23.97 8.53 -22.51 7.92 C-21.77 7.61 -21.02 7.3 -20.25 6.97 C-18.04 6.02 -15.87 5 -13.71 3.95 C-13.03 3.63 -12.36 3.3 -11.66 2.96 C-10.36 2.33 -9.07 1.69 -7.79 1.05 C-3.33 -1.11 -3.33 -1.11 0 0 Z " fill="#878888" transform="translate(189,970)"/>
<path d="M0 0 C5.52 1.49 10.66 3.14 15.72 5.82 C19.78 7.92 23.98 9.75 28.14 11.63 C31.8 13.38 33.73 14.6 36 18 C28.85 17.34 23.41 14.77 17.35 11.11 C11.8 7.79 6.04 5.3 0 3 C0 2.01 0 1.02 0 0 Z " fill="#7E7F7F" transform="translate(1068,958)"/>
<path d="M0 0 C0.99 0.33 1.98 0.66 3 1 C-4.33 4.46 -10.93 6.47 -18.96 7.47 C-22.66 8.12 -25.59 9.45 -28.92 11.11 C-32.24 12.53 -35.42 12.74 -39 13 C-38.05 10.58 -37.51 9.27 -35.18 8.03 C-34.44 7.81 -33.71 7.59 -32.96 7.37 C-32.14 7.12 -31.32 6.87 -30.47 6.62 C-29.59 6.37 -28.72 6.13 -27.81 5.88 C-26.92 5.62 -26.03 5.36 -25.11 5.09 C-18.36 3.2 -11.73 2.03 -4.77 1.32 C-2.05 1.16 -2.05 1.16 0 0 Z " fill="#868787" transform="translate(346,913)"/>
<path d="M0 0 C1 2 1 2 0.29 4.33 C-0.07 5.29 -0.44 6.26 -0.81 7.25 C-2.86 13.09 -3.86 18.74 -4.61 24.87 C-5 28 -5 28 -5.5 30.24 C-6.11 33.6 -6.22 36.86 -6.32 40.27 C-6.34 40.95 -6.36 41.63 -6.38 42.33 C-6.44 44.49 -6.5 46.65 -6.56 48.81 C-6.61 50.28 -6.65 51.75 -6.69 53.22 C-6.8 56.82 -6.9 60.41 -7 64 C-7.33 64 -7.66 64 -8 64 C-8.19 58.67 -8.37 53.33 -8.54 48 C-8.6 46.19 -8.66 44.38 -8.72 42.57 C-9.09 32.49 -9.33 22.9 -7 13 C-6.34 13 -5.68 13 -5 13 C-4.72 12.15 -4.45 11.29 -4.16 10.41 C-3.8 9.31 -3.44 8.2 -3.06 7.06 C-2.7 5.96 -2.34 4.86 -1.97 3.72 C-1 1 -1 1 0 0 Z " fill="#7C7E7D" transform="translate(42,1085)"/>
<path d="M0 0 C0 0.99 0 1.98 0 3 C-1.8 4.69 -1.8 4.69 -4.31 6.56 C-12.34 12.76 -19.85 19.36 -26.38 27.13 C-28.05 29.06 -29.8 30.84 -31.62 32.62 C-34.65 35.59 -37.34 38.7 -40 42 C-40 39.3 -39.97 37.49 -39 35 C-38.39 34.7 -37.78 34.41 -37.15 34.1 C-34.7 32.85 -33.52 31.53 -31.78 29.41 C-27.91 24.85 -23.79 20.61 -19.56 16.38 C-18.85 15.65 -18.14 14.93 -17.4 14.18 C-12.01 8.77 -6.35 4.23 0 0 Z " fill="#7C7E7D" transform="translate(97,1021)"/>
<path d="M0 0 C8.76 4.02 18.47 10.92 25 18 C25.33 18.99 25.66 19.98 26 21 C20.96 19.4 17.25 16.37 13.12 13.19 C11.75 12.14 10.38 11.09 9.01 10.04 C8.34 9.54 7.68 9.03 7 8.51 C4.04 6.28 1.02 4.14 -2 2 C-1.34 1.34 -0.68 0.68 0 0 Z " fill="#7D7F7E" transform="translate(817,151)"/>
<path d="M0 0 C0.99 0 1.98 0 3 0 C4.69 2.99 6.35 5.99 8 9 C8.35 9.62 8.69 10.25 9.05 10.89 C13.85 19.97 17.47 29.7 18 40 C14.45 37.31 14.25 34.23 13.44 30 C11.36 20.38 6.79 12.22 1.97 3.72 C1.28 2.5 0.63 1.25 0 0 Z " fill="#7D7E7E" transform="translate(1228,1069)"/>
<path d="M0 0 C0.83 0.52 1.65 1.03 2.5 1.56 C5.04 3.03 6.77 3.38 9.62 3.88 C13.74 4.67 13.74 4.67 16.06 7.62 C16.53 8.8 16.53 8.8 17 10 C7.13 7.7 -4.06 4.56 -12 -2 C-7.53 -3.49 -4.25 -1.73 0 0 Z " fill="#7E807F" transform="translate(1049,949)"/>
<path d="M0 0 C0.33 0 0.66 0 1 0 C1.27 1.11 1.54 2.23 1.81 3.38 C2.39 5.74 3.01 8.03 3.8 10.34 C6.07 17 6.33 22.99 6 30 C2.32 26.07 1.05 22.46 0.19 17.25 C-0 16.19 -0 16.19 -0.19 15.11 C-1.05 9.84 -1.03 5.27 0 0 Z " fill="#7E807F" transform="translate(375,360)"/>
<path d="M0 0 C3.74 1.48 5.29 3.44 7.5 6.75 C8.07 7.59 8.63 8.43 9.22 9.3 C10.1 10.63 10.1 10.63 11 12 C11.95 13.4 11.95 13.4 12.92 14.82 C15.33 18.5 17.56 22.25 19.75 26.06 C20.16 26.76 20.57 27.45 21 28.17 C23.13 31.9 24.59 34.56 24 39 C21.58 36.1 19.99 33.03 18.4 29.62 C14.26 20.76 9.2 13.54 3 6 C0 2.26 0 2.26 0 0 Z " fill="#7E807F" transform="translate(857,187)"/>
<path d="M0 0 C15.78 9.77 15.78 9.77 22 15 C22 15.66 22 16.32 22 17 C13.94 15.97 6.43 10.05 1.25 4 C0.51 3.01 -0.24 2.02 -1 1 C-0.67 0.67 -0.34 0.34 0 0 Z " fill="#7D7F7E" transform="translate(803,803)"/>
<path d="M0 0 C-4.42 3.67 -9.63 6.01 -14.71 8.6 C-18.84 10.73 -22.47 12.92 -26 16 C-26.66 15.67 -27.32 15.34 -28 15 C-27.46 14.6 -26.91 14.2 -26.36 13.79 C-25.64 13.26 -24.92 12.73 -24.19 12.19 C-23.48 11.67 -22.77 11.14 -22.04 10.61 C-20.21 9.17 -18.62 7.67 -17 6 C-15.69 4.96 -14.36 3.97 -13 3 C-12.07 2.26 -11.14 1.52 -10.19 0.75 C-6.26 -1.4 -4.27 -1.03 0 0 Z " fill="#858686" transform="translate(528,97)"/>
<path d="M0 0 C1.25 3.76 0.56 5.6 -0.38 9.44 C-1.7 15.22 -2.43 20.75 -2.69 26.67 C-3 29 -3 29 -5 31 C-5.6 6.55 -5.6 6.55 0 0 Z " fill="#828483" transform="translate(892,405)"/>
<path d="M0 0 C0 3.6 -0.56 3.95 -2.94 6.5 C-7.49 11.5 -11.74 16.74 -16 22 C-16.67 20.29 -16.67 20.29 -17 18 C-15.93 15.71 -15.93 15.71 -14.31 13.38 C-13.53 12.21 -13.53 12.21 -12.74 11.02 C-10.9 8.88 -9.52 8.18 -7 7 C-5.05 5.29 -5.05 5.29 -3.25 3.38 C-2.64 2.74 -2.02 2.11 -1.39 1.46 C-0.93 0.98 -0.47 0.5 0 0 Z " fill="#808281" transform="translate(422,182)"/>
<path d="M0 0 C6.51 0.43 12.44 2.58 18 6 C19.32 8.17 19.32 8.17 20 10 C13.28 7.81 6.63 5.44 0 3 C0 2.01 0 1.02 0 0 Z " fill="#818382" transform="translate(792,140)"/>
<path d="M0 0 C-2.25 2.52 -4.33 3.77 -7.44 5.06 C-9.73 6.03 -11.93 6.96 -14.1 8.18 C-16 9 -16 9 -19 8 C-18 5 -18 5 -15.74 3.61 C-10.24 1.12 -6.06 -0.67 0 0 Z " fill="#848685" transform="translate(173,978)"/>
<path d="M0 0 C0.33 0.66 0.66 1.32 1 2 C-12.07 18.77 -12.07 18.77 -16 23 C-16.66 23 -17.32 23 -18 23 C-17.01 20.8 -16.19 19.18 -14.44 17.5 C-12.83 16.09 -12.83 16.09 -12.56 13.94 C-12.28 12.98 -12.28 12.98 -12 12 C-11.42 11.74 -10.83 11.47 -10.23 11.2 C-7.27 9.61 -5.79 7.53 -3.75 4.88 C-2.69 3.51 -2.69 3.51 -1.61 2.12 C-1.08 1.42 -0.55 0.72 0 0 Z " fill="#7D7F7E" transform="translate(395,881)"/>
<path d="M0 0 C-5.5 6.21 -14.11 7.49 -22 8 C-18.2 4.63 -14.66 2.87 -9.88 1.19 C-8.66 0.75 -7.44 0.31 -6.18 -0.14 C-3 -1 -3 -1 0 0 Z " fill="#8C8D8C" transform="translate(244,947)"/>
<path d="M0 0 C8.91 1.98 8.91 1.98 18 4 C18 4.66 18 5.32 18 6 C10.87 6.35 5.53 5.96 -1 3 C-0.67 2.01 -0.34 1.02 0 0 Z " fill="#808181" transform="translate(938,913)"/>
<path d="M0 0 C2.24 0.83 4.16 1.83 6.2 3.08 C6.88 3.49 7.56 3.9 8.27 4.32 C10.3 5.95 11.08 7.38 12.07 9.77 C5.91 8.1 0.59 4.89 -4.93 1.77 C-1.93 -0.23 -1.93 -0.23 0 0 Z " fill="#7C7E7D" transform="translate(1144.9296875,994.23046875)"/>
<path d="M0 0 C-6.66 4.71 -14.13 5.66 -22 7 C-17.75 2.02 -10.6 0.59 -4.44 -0.81 C-2 -1 -2 -1 0 0 Z " fill="#888988" transform="translate(229,954)"/>
<path d="M0 0 C0 0.33 0 0.66 0 1 C-4.22 2.41 -8.45 3.82 -12.69 5.19 C-13.81 5.55 -14.92 5.92 -16.07 6.29 C-19 7 -19 7 -22 6 C-20 3 -20 3 -17.25 2.3 C-16.18 2.16 -15.11 2.02 -14 1.88 C-0.27 -0.01 -0.27 -0.01 0 0 Z " fill="#7C7E7D" transform="translate(329,919)"/>
<path d="M0 0 C4.14 6.2 4.26 11.77 4 19 C0.79 14.95 -1.14 11.1 -0.9 5.77 C-0.66 3.84 -0.34 1.92 0 0 Z " fill="#7C7E7D" transform="translate(382,395)"/>
<path d="M0 0 C0 3 0 3 -2.45 5.71 C-3.52 6.75 -4.6 7.78 -5.69 8.81 C-9.74 12.7 -13.48 16.63 -17 21 C-17 16.46 -17 16.46 -16 14 C-15.28 13.58 -14.56 13.16 -13.81 12.73 C-10.47 10.67 -7.9 8.11 -5.19 5.31 C-4.69 4.8 -4.18 4.29 -3.67 3.76 C-2.44 2.51 -1.22 1.26 0 0 Z " fill="#7D7F7E" transform="translate(74,1042)"/>
<path d="M0 0 C2.14 0.38 2.14 0.38 4 1 C1.42 2.49 -1.16 3.96 -3.75 5.44 C-4.48 5.86 -5.21 6.28 -5.96 6.71 C-6.67 7.12 -7.38 7.52 -8.11 7.93 C-8.76 8.31 -9.41 8.68 -10.08 9.06 C-12.04 10.02 -13.87 10.55 -16 11 C-15.53 10.38 -15.05 9.76 -14.56 9.12 C-12.98 7.09 -12.98 7.09 -12 5 C-10.93 4.88 -9.85 4.75 -8.75 4.62 C-4.58 3.93 -3.2 2.59 0 0 Z " fill="#7D7F7E" transform="translate(147,989)"/>
<path d="M0 0 C1.58 0.45 3.17 0.91 4.75 1.38 C5.63 1.63 6.51 1.89 7.42 2.15 C9.76 2.92 11.83 3.84 14 5 C14 5.66 14 6.32 14 7 C8.72 6.46 4.74 5.23 0 3 C0 2.01 0 1.02 0 0 Z " fill="#828382" transform="translate(1068,958)"/>
<path d="M0 0 C0 0.66 0 1.32 0 2 C-5.16 4.99 -10.2 6.03 -16 7 C-15.67 6.34 -15.34 5.68 -15 5 C-14.34 5 -13.68 5 -13 5 C-12.67 4.01 -12.34 3.02 -12 2 C-10.38 1.66 -8.75 1.33 -7.12 1 C-6.22 0.81 -5.32 0.63 -4.38 0.44 C-2 0 -2 0 0 0 Z " fill="#7D7F7E" transform="translate(257,942)"/>
<path d="M0 0 C-3.06 4.21 -8.27 4.55 -13.08 5.34 C-14.72 5.58 -16.36 5.79 -18 6 C-15.14 3.7 -12.4 2.14 -9 0.75 C-8.15 0.39 -7.31 0.04 -6.44 -0.33 C-3.81 -1.05 -2.53 -0.91 0 0 Z " fill="#8E8F8E" transform="translate(268,938)"/>
<path d="M0 0 C0.33 0.66 0.66 1.32 1 2 C0.08 3.51 -0.87 5.01 -1.81 6.5 C-2.33 7.34 -2.86 8.17 -3.39 9.03 C-3.92 9.68 -4.45 10.33 -5 11 C-5.99 11 -6.98 11 -8 11 C-7.53 10.42 -7.05 9.84 -6.56 9.25 C-4.89 7.16 -4.89 7.16 -4.56 4.94 C-3.79 2.27 -2.28 1.47 0 0 Z " fill="#7D7F7E" transform="translate(634,75)"/>
<path d="M0 0 C0.33 0.66 0.66 1.32 1 2 C-4.45 4.24 -9.13 5.48 -15 6 C-14.41 4.08 -14.41 4.08 -13 2 C-9.96 1.17 -9.96 1.17 -6.38 0.75 C-5.19 0.6 -4 0.45 -2.77 0.3 C-1.4 0.15 -1.4 0.15 0 0 Z " fill="#7C7E7D" transform="translate(305,925)"/>
<path d="M0 0 C3.79 1.49 5.42 3.55 7.69 6.88 C8.29 7.74 8.89 8.6 9.51 9.49 C10.85 11.74 11.55 13.44 12 16 C7.49 11.77 3.49 7.11 0 2 C0 1.34 0 0.68 0 0 Z " fill="#7D7F7E" transform="translate(857,187)"/>
<path d="M0 0 C0.89 0.01 1.78 0.02 2.7 0.03 C3.38 0.04 4.05 0.05 4.75 0.06 C0.52 3.54 -2.6 4.2 -8 4.12 C-8.8 4.12 -9.6 4.11 -10.42 4.1 C-11.03 4.09 -11.63 4.07 -12.25 4.06 C-8.66 -0.06 -5.26 -0.07 0 0 Z " fill="#7E807F" transform="translate(362.25,908.9375)"/>
<path d="M0 0 C1.27 3.82 0.47 5.36 -0.81 9.12 C-1.17 10.2 -1.53 11.28 -1.89 12.38 C-3 15 -3 15 -5 16 C-4.75 13.71 -4.47 11.42 -4.19 9.12 C-4.04 7.85 -3.89 6.57 -3.73 5.26 C-3 2 -3 2 0 0 Z " fill="#7C7E7D" transform="translate(386,244)"/>
<path d="M0 0 C0 0.99 0 1.98 0 3 C-0.66 3.31 -1.33 3.63 -2.01 3.95 C-6.76 6.25 -11.05 8.44 -15 12 C-15.66 11.67 -16.32 11.34 -17 11 C-16.46 10.6 -15.91 10.2 -15.36 9.79 C-14.64 9.26 -13.92 8.73 -13.19 8.19 C-12.48 7.67 -11.77 7.14 -11.04 6.61 C-9 5.08 -9 5.08 -7.43 3.36 C-5.31 1.34 -2.75 0.92 0 0 Z " fill="#7C7E7D" transform="translate(517,101)"/>
<path d="M0 0 C0.66 0.33 1.32 0.66 2 1 C0.07 3.15 -1.87 5.3 -3.81 7.44 C-4.36 8.05 -4.91 8.66 -5.47 9.29 C-6 9.87 -6.53 10.46 -7.08 11.06 C-7.57 11.6 -8.06 12.14 -8.56 12.69 C-10 14 -10 14 -13 15 C-11.39 10.93 -8.46 8.23 -5.38 5.25 C-4.86 4.74 -4.34 4.24 -3.81 3.71 C-2.55 2.47 -1.27 1.24 0 0 Z " fill="#7C7E7D" transform="translate(688,977)"/>
<path d="M0 0 C2.98 2.5 3.95 5.05 5.19 8.69 C5.53 9.68 5.88 10.68 6.23 11.7 C6.48 12.46 6.74 13.22 7 14 C4 13 4 13 2.83 10.82 C2.5 9.93 2.16 9.04 1.81 8.12 C1.3 6.8 1.3 6.8 0.77 5.45 C0 3 0 3 0 0 Z " fill="#7F8180" transform="translate(882,227)"/>
<path d="M0 0 C1 3 1 3 -0.12 5.94 C-2.08 9.12 -3.96 10.87 -7 13 C-6.46 9.14 -5.5 6.98 -3 4 C-2.44 3.26 -1.89 2.51 -1.31 1.75 C-0.88 1.17 -0.45 0.59 0 0 Z " fill="#868887" transform="translate(403,205)"/>
<path d="M0 0 C1.67 2.96 2.33 5.37 2.62 8.75 C2.7 9.55 2.77 10.35 2.85 11.17 C2.9 11.78 2.95 12.38 3 13 C0.19 10.31 -0.96 9.01 -1.12 5 C-1 2 -1 2 0 0 Z " fill="#7F8180" transform="translate(1243,1096)"/>
<path d="M0 0 C1.98 0.66 3.96 1.32 6 2 C6 2.66 6 3.32 6 4 C6.66 4.66 7.32 5.32 8 6 C1.38 5.25 1.38 5.25 -2 3 C-1 1 -1 1 0 0 Z " fill="#7C7E7D" transform="translate(708,78)"/>
<path d="M0 0 C0.66 0 1.32 0 2 0 C3.18 3.67 3.07 7.17 3 11 C2.34 11 1.68 11 1 11 C-0.28 7.15 -0.07 4.05 0 0 Z " fill="#848685" transform="translate(899,299)"/>
<path d="M0 0 C1.89 0.03 1.89 0.03 3.81 0.06 C-0.5 4 -0.5 4 -4 4.31 C-5.08 4.19 -5.08 4.19 -6.19 4.06 C-6.52 3.07 -6.85 2.08 -7.19 1.06 C-4.44 0.15 -2.83 -0.05 0 0 Z " fill="#7C7E7D" transform="translate(577.1875,117.9375)"/>
</svg>
