<?xml version="1.0" encoding="UTF-8"?><svg id="Layer_1" xmlns="http://www.w3.org/2000/svg" viewBox="0 0 192 192"><defs><style>.cls-1{fill:#757679;}.cls-1,.cls-2,.cls-3{isolation:isolate;opacity:.3;}.cls-1,.cls-2,.cls-3,.cls-4,.cls-5,.cls-6,.cls-7{stroke-width:0px;}.cls-2,.cls-4{fill:#5c5d60;}.cls-3{fill:#d1d3d4;}.cls-5{fill:#ff9200;}.cls-6{fill:#65695b;}.cls-7{fill:#00682d;}</style></defs><path class="cls-7" d="m92.94,32.6c.91-1.05.67-1.71-1.5-2.01-11.38-1.58-17.57-6.42-21.65-12.57-.72-5.85,1.16-11.17,8.91-15.18,3.83-1.98,8.19-3.29,14.73-2.7-3.7,2.26-7.14,3.77-9.26,6-4.65,4.89-3.17,11.35,3.54,14.94,7.23,3.87,17.57,4.02,25.61.23,2.27-1.06,4.06-2.51,6.07-3.78,3.82.33,1.64,1.84,1.59,2.94-2.67,5.58-9.26,8.59-18.18,10.09-2.1.35-5.05-.09-5.41,1.99-1.47.77-2.94.77-4.44.04h0Z"/><path class="cls-6" d="m190.22,116.19c-1.02,14.03-12.45,24.75-31.13,32.4-19.34,7.92-39.79,14.87-59.65,22.33-3.17,1.19-5.58,1.16-8.73-.02-19.87-7.46-39.92-14.75-59.76-22.23C8.34,140.14-4.52,122.5,1.46,108.55c.53-1.23,1.24-2.45,2.09-3.62,1.34-1.85,3.28-2.79,5.49-.49,13.49,14.05,35.39,22.72,56.05,32.3,12.1,5.62,21.25,12.99,26.58,21.83.61,1.01.96,2.46,3.06,2.6,2.85.2,3.07-1.53,3.76-2.63,7.07-11.21,19.86-19.72,36.01-26.27,18.12-7.35,34.14-15.82,45.66-27.09,3.36-3.28,5.4-2.19,7.15.6,2.09,3.33,3.23,6.77,2.9,10.38h.01Z"/><path class="cls-2" d="m190.68,113.75c-1.02,14.03-12.45,24.75-31.13,32.4-19.34,7.92-39.79,14.87-59.65,22.33-3.17,1.19-5.58,1.16-8.73-.02-19.87-7.46-39.92-14.75-59.76-22.23C8.8,137.71-4.05,120.07,1.92,106.11c.53-1.23,1.24-2.45,2.09-3.62,1.34-1.85,3.28-2.79,5.49-.49,13.49,14.05,35.39,22.72,56.05,32.3,12.1,5.62,21.25,12.99,26.58,21.83.61,1.01.96,2.46,3.06,2.6,2.85.2,3.07-1.53,3.76-2.63,7.07-11.21,19.86-19.72,36.01-26.27,18.12-7.35,34.14-15.82,45.66-27.09,3.36-3.28,5.4-2.19,7.15.6,2.09,3.33,3.23,6.77,2.9,10.38h.01Z"/><path class="cls-1" d="m191.96,108.61c-1.02,14.03-12.45,24.75-31.13,32.4-19.34,7.92-39.79,14.87-59.65,22.33-3.17,1.19-5.58,1.16-8.73-.02-19.87-7.46-39.92-14.75-59.76-22.23C10.08,132.57-2.78,114.92,3.2,100.97c.53-1.23,1.24-2.45,2.09-3.62,1.34-1.85,3.28-2.79,5.49-.49,13.49,14.05,35.39,22.72,56.05,32.3,12.1,5.62,21.25,12.99,26.58,21.83.61,1.01.96,2.46,3.06,2.6,2.85.2,3.07-1.53,3.76-2.63,7.07-11.21,19.86-19.72,36.01-26.27,18.12-7.35,34.14-15.82,45.66-27.09,3.36-3.28,5.4-2.19,7.15.6,2.09,3.33,3.23,6.77,2.9,10.38h.01Z"/><path class="cls-3" d="m190.87,113.49c-1.02,11.35-12.45,20.03-31.12,26.22-19.33,6.41-39.78,12.03-59.63,18.08-3.17.96-5.58.94-8.73-.01-19.86-6.04-39.91-11.94-59.75-17.99-22.6-6.9-35.46-21.18-29.48-32.47.53-1,1.24-1.98,2.09-2.93,1.34-1.5,3.28-2.27,5.49-.39,13.49,11.38,35.39,18.38,56.04,26.14,12.09,4.54,21.24,10.51,26.57,17.66.61.82.96,1.99,3.06,2.11,2.85.16,3.07-1.24,3.76-2.12,7.07-9.07,19.86-15.96,36-21.26,18.12-5.95,34.13-12.8,45.65-21.92,3.35-2.65,5.4-1.77,7.15.49,2.09,2.7,3.23,5.47,2.9,8.4h0Z"/><path class="cls-7" d="m92.94,32.6c1.48-.01,2.95-.03,4.44-.04,4.39-.02,7.16,1.97,10.49,3.17,17.31,6.29,34.89,12.37,51.64,19.17,19.87,8.07,31.69,19.23,31.43,34.19-.02,1.12-.06,2.26-.44,3.35-1.02,2.93-.88,7.05-5.68,7.9-3.67.64-5.13-3.47-7.5-5.45-9.43-7.9-20.74-14.57-33.94-20.15-27.96-11.82-33.48-15.85-47.5-34.36-2.22,3.12-3.98,6.04-6.3,8.78-8.41,9.97-21.17,17.61-36.52,23.69-17.15,6.8-31.52,15.2-42.51,25.67-.92.88-1.42,2.4-3.76,2.1-1.94-.25-2.39-1.62-2.98-2.65-6.48-11.22-2.18-21.45,8.18-31.04,4.83-4.47,10.97-8.3,18.32-11.28,20.29-8.25,41.47-15.63,62.63-23.05h0Z"/><polygon class="cls-5" points="39.54 100.31 39.54 91.69 51.94 96 64.35 100.31 51.94 104.61 39.54 108.92 39.54 100.31"/><path class="cls-4" d="m91.85,173.24c-17,6.2-33.54,12.23-51.33,18.71-.07-1.47-.58-2.58-.09-3.49,1.92-3.57,5.45-6.19,11.4-7.91,5.14-1.49,9.68-3.76,14.33-5.8,1.64-.71,3.28-1.66,4.12-2.72.68-.86.81-2.44-.07-3-.88-.58-3.61-.73-4.97-.35-3.59,1-6.88,2.39-10.39,3.66.79-3.38,7.43-7.48,12.56-7.78.6-.03,1.32.17,1.87.37,7.36,2.69,14.7,5.4,22.57,8.3h-.01Z"/><path class="cls-4" d="m97.85,173.24c7.97-2.92,15.42-5.68,22.91-8.38.58-.21,1.64-.27,2.21-.09,5.33,1.64,10.92,3.17,12.23,7.69-3.67-1.32-6.87-2.69-10.39-3.64-1.5-.41-4.42-.36-5.29.23-.89.6-.78,2.48.16,3.17,2.29,1.71,5.17,3.18,8.1,4.52,3.16,1.44,6.43,2.94,10.05,3.85,6.15,1.53,9.47,4.31,11.42,7.87.5.9.08,1.97.08,3.55-17.77-6.48-34.39-12.53-51.48-18.77h.01Z"/><path class="cls-4" d="m71.37,170.34c-5.68,2.11-10.24,3.8-15.04,5.58-.73-.62-1.41-1.19-2.33-1.98,4.53-1.53,8.79-3.04,13.18-4.37.72-.22,2.12.36,4.2.76h0Z"/><path class="cls-4" d="m135.48,174.05c-.65.63-1.22,1.17-1.97,1.91-4.77-1.76-9.38-3.47-14.04-5.18,2.74-1.84,4.13-1.55,16.01,3.28Z"/><path class="cls-5" d="m164.19,101.71h-5.35v-3.08h5.35v3.08Z"/><path class="cls-5" d="m73.82,98.63h5.19v3.08h-5.19v-3.08Z"/><path class="cls-5" d="m132.23,108.64h-5.3v-16.94h5.3v16.94Z"/><path class="cls-5" d="m95.08,94.01h5.3v12.32h-5.3v-12.32Z"/><path class="cls-5" d="m142.77,106.33h-5.11v-12.32h5.11v12.32Z"/><path class="cls-5" d="m116.44,94.01h5.13v12.31h-5.13v-12.31Z"/><path class="cls-5" d="m84.55,96.33h5.13v7.69h-5.13v-7.69Z"/><path class="cls-5" d="m110.89,104.02h-5.11v-7.7h5.11v7.7Z"/><path class="cls-5" d="m148.33,96.33h5.13v7.69h-5.13v-7.69Z"/></svg>