<?xml version="1.0" encoding="UTF-8"?><svg id="Layer_1" xmlns="http://www.w3.org/2000/svg" viewBox="0 0 165.98 249.1"><defs><style>.cls-1{fill:#757679;}.cls-1,.cls-2,.cls-3{isolation:isolate;opacity:.3;}.cls-1,.cls-2,.cls-3,.cls-4,.cls-5,.cls-6,.cls-7{stroke-width:0px;}.cls-2,.cls-4{fill:#5c5d60;}.cls-3{fill:#d1d3d4;}.cls-5{fill:#ff9200;}.cls-6{fill:#65695b;}.cls-7{fill:#00682d;}</style></defs><path class="cls-7" d="m80.34,42.29c.79-1.36.58-2.22-1.3-2.6-9.84-2.05-15.19-8.33-18.72-16.31-.62-7.59,1-14.49,7.7-19.69,3.31-2.57,7.08-4.27,12.73-3.5-3.2,2.93-6.17,4.89-8,7.78-4.02,6.34-2.74,14.73,3.06,19.39,6.25,5.02,15.19,5.22,22.14.3,1.96-1.38,3.51-3.26,5.25-4.9,3.31.43,1.41,2.39,1.37,3.81-2.31,7.23-8,11.14-15.72,13.09-1.81.46-4.37-.11-4.68,2.59-1.27.99-2.54.99-3.84.05h0Z"/><path class="cls-6" d="m164.44,150.74c-.88,18.21-10.76,32.11-26.91,42.04-16.72,10.28-34.4,19.29-51.57,28.97-2.74,1.54-4.83,1.5-7.55-.03-17.18-9.68-34.51-19.13-51.66-28.84C7.21,181.82-3.9,158.93,1.26,140.83c.46-1.6,1.07-3.18,1.8-4.69,1.16-2.4,2.84-3.63,4.75-.63,11.66,18.23,30.59,29.47,48.46,41.91,10.46,7.29,18.37,16.85,22.98,28.32.53,1.31.83,3.19,2.64,3.38,2.47.26,2.65-1.99,3.25-3.41,6.11-14.55,17.17-25.58,31.13-34.08,15.67-9.54,29.51-20.52,39.48-35.15,2.91-4.26,4.67-2.84,6.18.78,1.8,4.32,2.79,8.78,2.51,13.47h0Z"/><path class="cls-2" d="m164.84,147.58c-.88,18.21-10.76,32.11-26.91,42.04-16.72,10.28-34.4,19.29-51.57,28.97-2.74,1.54-4.83,1.5-7.55-.03-17.18-9.68-34.51-19.13-51.66-28.84C7.61,178.66-3.5,155.77,1.66,137.67c.46-1.6,1.07-3.18,1.8-4.69,1.16-2.4,2.84-3.63,4.75-.63,11.66,18.23,30.59,29.47,48.46,41.91,10.46,7.29,18.37,16.85,22.98,28.32.53,1.31.83,3.19,2.64,3.38,2.47.26,2.65-1.99,3.25-3.41,6.11-14.55,17.17-25.58,31.13-34.08,15.67-9.54,29.51-20.52,39.48-35.15,2.91-4.26,4.67-2.84,6.18.78,1.8,4.32,2.79,8.78,2.51,13.47h0Z"/><path class="cls-1" d="m165.94,140.91c-.88,18.21-10.76,32.11-26.91,42.04-16.72,10.28-34.4,19.29-51.57,28.97-2.74,1.54-4.83,1.5-7.55-.03-17.18-9.68-34.51-19.13-51.66-28.84-19.55-11.06-30.66-33.95-25.5-52.05.46-1.6,1.07-3.18,1.8-4.69,1.16-2.4,2.84-3.63,4.75-.63,11.66,18.23,30.59,29.47,48.46,41.91,10.46,7.29,18.37,16.85,22.98,28.32.53,1.31.83,3.19,2.64,3.38,2.47.26,2.65-1.99,3.25-3.41,6.11-14.55,17.17-25.58,31.13-34.08,15.67-9.54,29.51-20.52,39.48-35.15,2.91-4.26,4.67-2.84,6.18.78,1.8,4.32,2.79,8.78,2.51,13.47h0Z"/><path class="cls-3" d="m165.01,147.24c-.88,14.73-10.76,25.99-26.9,34.02-16.71,8.32-34.39,15.61-51.55,23.45-2.74,1.25-4.83,1.22-7.55-.02-17.17-7.83-34.5-15.49-51.65-23.34-19.54-8.95-30.65-27.47-25.49-42.13.46-1.29,1.07-2.57,1.8-3.8,1.16-1.94,2.84-2.94,4.75-.51,11.66,14.76,30.59,23.85,48.45,33.92,10.45,5.9,18.36,13.64,22.97,22.92.53,1.06.83,2.59,2.64,2.74,2.47.21,2.65-1.61,3.25-2.75,6.11-11.77,17.17-20.71,31.12-27.58,15.67-7.72,29.5-16.61,39.47-28.44,2.9-3.44,4.67-2.3,6.18.63,1.8,3.5,2.79,7.1,2.51,10.9h0Z"/><path class="cls-7" d="m80.34,42.29c1.28-.02,2.55-.04,3.84-.05,3.79-.03,6.19,2.55,9.07,4.12,14.97,8.16,30.17,16.04,44.64,24.87,17.18,10.47,27.4,24.95,27.17,44.36-.02,1.45-.05,2.93-.38,4.35-.88,3.8-.76,9.14-4.91,10.24-3.17.84-4.44-4.5-6.48-7.07-8.15-10.24-17.93-18.9-29.34-26.15-24.17-15.34-28.95-20.56-41.07-44.57-1.92,4.05-3.44,7.83-5.45,11.39-7.27,12.94-18.3,22.85-31.57,30.74-14.83,8.83-27.25,19.72-36.75,33.3-.8,1.14-1.23,3.12-3.25,2.72-1.68-.33-2.07-2.1-2.57-3.43-5.61-14.56-1.88-27.83,7.07-40.27,4.17-5.8,9.49-10.77,15.83-14.63,17.54-10.7,35.85-20.28,54.14-29.9h0Z"/><polygon class="cls-5" points="34.18 130.14 34.18 118.96 44.9 124.55 55.63 130.14 44.9 135.72 34.18 141.31 34.18 130.14"/><path class="cls-4" d="m79.41,224.76c-14.69,8.04-29,15.87-44.37,24.28-.06-1.91-.5-3.34-.08-4.52,1.66-4.63,4.71-8.03,9.86-10.26,4.45-1.93,8.37-4.88,12.39-7.52,1.41-.92,2.84-2.15,3.56-3.53.58-1.12.7-3.16-.06-3.9-.76-.75-3.12-.94-4.3-.45-3.1,1.29-5.95,3.1-8.98,4.74.68-4.38,6.42-9.71,10.86-10.09.52-.04,1.14.22,1.62.48,6.37,3.49,12.7,7,19.51,10.76h0Z"/><path class="cls-4" d="m84.59,224.76c6.89-3.79,13.33-7.37,19.8-10.87.5-.27,1.41-.35,1.91-.12,4.61,2.13,9.44,4.12,10.57,9.97-3.17-1.71-5.94-3.48-8.98-4.72-1.3-.53-3.82-.47-4.57.3-.77.78-.67,3.21.14,4.12,1.98,2.22,4.47,4.13,7,5.86,2.73,1.87,5.56,3.82,8.69,4.99,5.31,1.98,8.19,5.6,9.88,10.21.43,1.16.07,2.55.07,4.6-15.37-8.4-29.73-16.26-44.51-24.35h0Z"/><path class="cls-4" d="m61.7,221c-4.91,2.74-8.85,4.93-13.01,7.24-.63-.81-1.22-1.55-2.02-2.57,3.92-1.99,7.59-3.94,11.4-5.67.62-.28,1.83.47,3.63.99h0Z"/><path class="cls-4" d="m117.12,225.8c-.57.82-1.05,1.52-1.71,2.47-4.12-2.29-8.11-4.5-12.14-6.72,2.37-2.38,3.57-2.02,13.84,4.25Z"/><path class="cls-5" d="m141.94,131.96h-4.62v-4h4.62v4Z"/><path class="cls-5" d="m63.82,127.96h4.48v4h-4.48v-4Z"/><path class="cls-5" d="m114.31,140.94h-4.58v-21.97h4.58v21.97Z"/><path class="cls-5" d="m82.19,121.97h4.58v15.98h-4.58v-15.98Z"/><path class="cls-5" d="m123.43,137.95h-4.42v-15.98h4.42v15.98Z"/><path class="cls-5" d="m100.66,121.97h4.44v15.97h-4.44v-15.97Z"/><path class="cls-5" d="m73.09,124.97h4.44v9.98h-4.44v-9.98Z"/><path class="cls-5" d="m95.86,134.95h-4.42v-9.99h4.42v9.99Z"/><path class="cls-5" d="m128.23,124.97h4.44v9.98h-4.44v-9.98Z"/></svg>