<?xml version="1.0" encoding="UTF-8"?><svg id="Layer_1" xmlns="http://www.w3.org/2000/svg" viewBox="0 0 711.57 979.91"><defs><style>.cls-1{letter-spacing:-.02em;}.cls-2,.cls-3{font-family:MahmoudArt-Bold, MahmoudArt;font-size:111.51px;font-weight:700;}.cls-2,.cls-4{fill:#093;}.cls-5{fill:#757679;}.cls-5,.cls-6,.cls-7{opacity:.3;}.cls-5,.cls-6,.cls-7,.cls-3{isolation:isolate;}.cls-5,.cls-6,.cls-7,.cls-8,.cls-9,.cls-10,.cls-11,.cls-4,.cls-12{stroke-width:0px;}.cls-6,.cls-8{fill:#5c5d60;}.cls-7{fill:#d1d3d4;}.cls-13{letter-spacing:-.05em;}.cls-14{letter-spacing:-.01em;}.cls-3,.cls-10{fill:#ff9200;}.cls-9{fill:#666;}.cls-11{fill:#65695b;}.cls-12{fill:#00682d;}</style></defs><path class="cls-12" d="m354.11,124.89c2.1-4.03,1.53-6.55-3.46-7.69-26.22-6.05-40.49-24.61-49.89-48.15-1.66-22.4,2.68-42.8,20.53-58.16,8.84-7.59,18.87-12.6,33.94-10.34-8.52,8.65-16.45,14.45-21.33,22.97-10.71,18.74-7.3,43.5,8.16,57.25,16.66,14.81,40.49,15.41,59.01.88,5.22-4.08,9.35-9.61,13.98-14.47,8.81,1.27,3.77,7.07,3.66,11.25-6.16,21.36-21.33,32.9-41.89,38.67-4.83,1.35-11.64-.34-12.47,7.64-3.38,2.94-6.78,2.94-10.24.16h0Z"/><path class="cls-11" d="m578.27,445.11c-2.34,53.76-28.69,94.82-71.72,124.14-44.57,30.35-91.68,56.96-137.44,85.55-7.3,4.55-12.86,4.44-20.11-.08-45.79-28.58-91.99-56.49-137.7-85.16-52.1-32.66-81.73-100.25-67.95-153.71,1.22-4.73,2.86-9.38,4.81-13.85,3.09-7.09,7.56-10.71,12.66-1.87,31.08,53.84,81.54,87.03,129.15,123.75,27.88,21.52,48.96,49.76,61.25,83.62,1.4,3.87,2.21,9.43,7.04,9.98,6.57.75,7.07-5.87,8.65-10.06,16.29-42.95,45.76-75.54,82.97-100.64,41.76-28.17,78.66-60.6,105.22-103.79,7.74-12.58,12.45-8.39,16.48,2.31,4.81,12.76,7.43,25.93,6.68,39.78l.03.03Z"/><path class="cls-6" d="m579.33,435.78c-2.34,53.76-28.69,94.82-71.72,124.13-44.57,30.35-91.68,56.96-137.44,85.55-7.3,4.55-12.86,4.44-20.11-.08-45.79-28.58-91.99-56.49-137.7-85.16-52.1-32.66-81.73-100.25-67.95-153.71,1.22-4.73,2.86-9.38,4.81-13.85,3.09-7.09,7.56-10.71,12.66-1.87,31.08,53.84,81.54,87.03,129.15,123.75,27.88,21.52,48.96,49.76,61.25,83.62,1.4,3.87,2.21,9.43,7.04,9.98,6.57.75,7.07-5.87,8.65-10.06,16.29-42.95,45.76-75.54,82.97-100.64,41.76-28.17,78.66-60.6,105.22-103.79,7.74-12.58,12.45-8.39,16.48,2.31,4.81,12.76,7.43,25.93,6.68,39.78l.03.03Z"/><path class="cls-5" d="m582.27,416.09c-2.34,53.76-28.69,94.82-71.72,124.14-44.57,30.35-91.68,56.96-137.44,85.55-7.3,4.55-12.86,4.44-20.11-.08-45.79-28.58-91.99-56.49-137.7-85.16-52.1-32.66-81.73-100.25-67.95-153.71,1.22-4.73,2.86-9.38,4.81-13.85,3.09-7.09,7.56-10.71,12.66-1.87,31.08,53.84,81.54,87.03,129.15,123.75,27.88,21.52,48.96,49.76,61.25,83.62,1.4,3.87,2.21,9.43,7.04,9.98,6.57.75,7.07-5.87,8.65-10.06,16.29-42.95,45.76-75.54,82.97-100.64,41.76-28.17,78.66-60.6,105.22-103.79,7.74-12.58,12.45-8.39,16.48,2.31,4.81,12.76,7.43,25.93,6.68,39.78l.03.03Z"/><path class="cls-7" d="m579.77,434.8c-2.34,43.5-28.69,76.74-71.7,100.46-44.54,24.56-91.65,46.1-137.39,69.25-7.3,3.69-12.86,3.61-20.11-.05-45.76-23.13-91.96-45.74-137.67-68.91-52.08-26.43-81.7-81.13-67.93-124.39,1.22-3.82,2.86-7.59,4.81-11.23,3.09-5.74,7.56-8.68,12.66-1.51,31.08,43.58,81.54,70.42,129.12,100.15,27.86,17.41,48.93,40.28,61.22,67.67,1.4,3.14,2.21,7.64,7.04,8.08,6.57.62,7.07-4.76,8.65-8.13,16.29-34.74,45.76-61.15,82.95-81.44,41.76-22.79,78.63-49.04,105.19-83.99,7.72-10.16,12.45-6.78,16.48,1.87,4.81,10.34,7.43,20.97,6.68,32.2v-.03Z"/><path class="cls-12" d="m354.11,124.89c3.4-.05,6.81-.1,10.24-.16,10.11-.08,16.5,7.54,24.17,12.16,39.89,24.09,80.4,47.37,118.99,73.44,45.79,30.92,73.02,73.67,72.42,131-.05,4.29-.13,8.65-1.01,12.84-2.34,11.23-2.03,27-13.1,30.25-8.45,2.47-11.82-13.28-17.28-20.87-21.72-30.25-47.79-55.82-78.19-77.2-64.42-45.29-77.15-60.7-109.45-131.62-5.12,11.95-9.17,23.13-14.53,33.63-19.39,38.2-48.78,67.46-84.14,90.77-39.52,26.06-72.63,58.23-97.94,98.33-2.13,3.35-3.27,9.2-8.65,8.03-4.47-.96-5.51-6.21-6.86-10.13-14.94-42.98-5.02-82.17,18.84-118.91,11.12-17.12,25.28-31.81,42.2-43.21,46.75-31.6,95.55-59.9,144.3-88.3v-.03Z"/><polygon class="cls-10" points="231.07 384.28 231.07 351.28 259.65 367.78 288.24 384.28 259.65 400.78 231.07 417.28 231.07 384.28"/><path class="cls-8" d="m351.62,663.71c-39.16,23.75-77.28,46.85-118.26,71.7-.16-5.64-1.33-9.87-.21-13.36,4.42-13.67,12.55-23.73,26.27-30.3,11.85-5.69,22.3-14.4,33.03-22.22,3.77-2.73,7.56-6.34,9.48-10.42,1.56-3.3,1.87-9.33-.16-11.51-2.03-2.21-8.32-2.78-11.46-1.33-8.26,3.82-15.85,9.15-23.93,14.01,1.82-12.94,17.12-28.66,28.95-29.81,1.38-.13,3.04.65,4.31,1.43,16.97,10.32,33.86,20.68,52,31.78l-.03.03Z"/><path class="cls-8" d="m365.44,663.68c18.37-11.2,35.52-21.75,52.78-32.09,1.33-.81,3.77-1.04,5.09-.36,12.29,6.29,25.15,12.16,28.17,29.44-8.45-5.04-15.83-10.29-23.93-13.93-3.46-1.56-10.19-1.38-12.19.88-2.05,2.31-1.79,9.48.36,12.16,5.28,6.55,11.9,12.19,18.66,17.31,7.28,5.54,14.81,11.28,23.15,14.73,14.16,5.85,21.83,16.53,26.32,30.14,1.14,3.43.18,7.54.18,13.59-40.95-24.82-79.23-48.02-118.63-71.9l.03.03Z"/><path class="cls-8" d="m304.43,652.59c-13.1,8.08-23.6,14.55-34.67,21.39-1.69-2.39-3.25-4.57-5.38-7.59,10.45-5.87,20.24-11.64,30.38-16.73,1.66-.83,4.89,1.38,9.67,2.91v.03Z"/><path class="cls-8" d="m452.13,666.77c-1.51,2.42-2.81,4.5-4.55,7.3-10.99-6.76-21.62-13.28-32.35-19.85,6.31-7.04,9.51-5.95,36.9,12.55Z"/><text class="cls-2" transform="translate(71.36 844.75)"><tspan class="cls-13" x="0" y="0">W</tspan><tspan class="cls-14" x="99.91" y="0">a</tspan><tspan x="156.66" y="0">y2</tspan></text><text class="cls-3" transform="translate(352.53 844.75)"><tspan x="0" y="0">Qu</tspan><tspan class="cls-1" x="141.94" y="0">r</tspan><tspan x="179.3" y="0">an</tspan></text><path class="cls-10" d="m82.35,883.71v-8.86c-1.92,2.1-3.95,2.86-5.95,2.86-5.12,0-10.34-4.96-15.36-4.96-1.92,0-3.77.75-5.64,2.75v8.68c1.92-1.82,3.87-2.39,5.79-2.39,5.12,0,10.16,4.39,15.28,4.39,1.92,0,3.95-.68,5.87-2.47h0Z"/><rect class="cls-10" x="147.52" y="892.38" width="11.17" height="12.68"/><rect class="cls-10" x="133.33" y="892.38" width="11.17" height="12.68"/><rect class="cls-4" x="480.9" y="892.38" width="11.17" height="12.68"/><rect class="cls-4" x="466.71" y="892.38" width="11.17" height="12.68"/><path class="cls-10" d="m37.73,952.2c0,4.18-1.35,7.72-3.87,10.68-2.6,2.96-5.79,4.39-9.41,4.39s-6.81-1.43-9.41-4.39-3.87-6.47-3.87-10.68v-23.73l-11.17-5.54v29.23c0,7.72,2.34,14.19,7.15,19.62,4.78,5.43,10.5,8.11,17.31,8.11s12.53-2.68,17.23-8.11c4.78-5.43,7.22-11.9,7.22-19.62v-42.49h-11.17v42.51Z"/><rect class="cls-10" x="17.59" y="909.72" width="11.17" height="12.68"/><rect class="cls-10" x="62.37" y="892.38" width="11.17" height="65.9"/><path class="cls-10" d="m98.3,909.72h-11.17v39.52c0,8-4.86,15.05-11.59,15.05v12.68c9.41,0,18.4-7.61,21.41-18.66h13.17v-12.68h-11.85v-35.91h.03Z"/><path class="cls-10" d="m170.03,934.48c-.49-13.72-11.51-24.87-24.35-24.87-14.71,0-23.34,12.97-23.34,25.52,0,3.61.68,7.25,2.1,10.47h-14.27v12.68h71.9v-12.68h-12.01v-11.15l-.05.03Zm-11.17,11.15h-12.34c-5.72,0-13.36-2.39-13.36-10.86,0-6.11,4.86-12.47,12.53-12.47,7.04,0,13.28,6,13.28,13.62,0,3.33-.08,6.47-.08,9.72h-.03Z"/><polygon class="cls-10" points="193.99 945.63 182.06 945.63 182.06 958.28 205.16 958.28 205.16 892.46 193.99 892.46 193.99 945.63"/><rect class="cls-10" x="219.35" y="892.38" width="11.17" height="65.9"/><rect class="cls-9" x="276.05" y="964.39" width="11.17" height="12.68"/><rect class="cls-9" x="290.16" y="964.39" width="11.17" height="12.68"/><path class="cls-4" d="m345.25,932.3c-.94-12.58-10.34-22.66-21.41-22.66-11.67,0-21.49,11.33-21.41,24.66l.08,11.33h-17.46c-6.29,0-11.43-5.33-11.43-11.62,0-4,1.84-7.72,5.46-10v-13.54c-9.9,2.75-16.63,12.76-16.63,23.52,0,12.58,9.33,23.44,20.66,24.19l30.48.1v-24.01c0-6.68,4.44-12.4,10.24-12.4s10.24,5.54,10.24,12.4v24.01h23.1v-12.68h-11.85l-.08-13.33.03.03Z"/><polygon class="cls-4" points="369.1 945.63 357.18 945.63 357.18 958.28 380.28 958.28 380.28 892.46 369.1 892.46 369.1 945.63"/><rect class="cls-4" x="394.65" y="892.38" width="11.17" height="65.9"/><path class="cls-4" d="m399.61,972.47c0-2.68,2.03-5.43,5.38-5.43.83,0,1.69.18,2.34.47v-5.61c-.75-.18-1.51-.29-2.34-.29-6.39,0-10,5.54-10.08,10.97,0,.57.08,1.14.16,1.72h-2.34v5.43h15.2v-5.43h-7.98c-.26-.57-.34-1.25-.34-1.82h0Z"/><path class="cls-4" d="m503.84,934.48c-.49-13.8-11.67-24.87-24.43-24.87-14.6,0-23.26,12.97-23.26,25.52,0,11.62,6.81,22.87,22.69,23.15h11.59c-1.77,4-5.54,6.11-9.25,6.11h-19.49c-7.3,0-13.28-6.76-13.28-15.05v-23.73l-11.17-5.54v29.23c0,15.23,10.99,27.73,24.43,27.73h19.49c9.56,0,18.32-7.43,21.49-18.76h13.1v-12.68h-11.93v-11.15l.03.03Zm-11.17,11.15h-13.28c-8.65,0-12.42-5.15-12.42-10.68,0-6.11,4.63-12.68,12.42-12.68,3.69,0,6.81,1.33,9.41,4,4.96,5.15,3.87,12.47,3.87,19.33v.03Z"/><polygon class="cls-4" points="538.95 909.72 527.77 909.72 527.77 945.63 515.77 945.63 515.77 958.28 538.95 958.28 538.95 909.72"/><rect class="cls-4" x="529.88" y="964.39" width="11.17" height="12.68"/><rect class="cls-4" x="515.77" y="964.39" width="11.17" height="12.68"/><path class="cls-4" d="m569.53,909.72h-11.17v39.52c0,8-4.86,15.05-11.59,15.05v12.68c9.41,0,18.4-7.61,21.41-18.66h13.17v-12.68h-11.85v-35.91h.03Z"/><path class="cls-4" d="m651.16,934.01c0-13.43-10.24-24.19-22.58-24.19h-24.35v-17.33h-11.17v53.14h-11.67v12.68h81.73v-12.68h-14.6c1.77-3.43,2.68-7.33,2.68-11.62h-.03Zm-22.58,11.62h-17.88l-6.47,5.61v-28.87h24.35c5.95,0,11.33,4.96,11.33,11.62s-5.2,11.62-11.33,11.62v.03Z"/><polygon class="cls-4" points="675.04 945.63 663.11 945.63 663.11 958.28 686.19 958.28 686.19 892.46 675.04 892.46 675.04 945.63"/><rect class="cls-4" x="700.4" y="892.38" width="11.17" height="65.9"/><path class="cls-10" d="m518.29,389.66h-12.32v-11.8h12.32v11.8Z"/><path class="cls-10" d="m310.06,377.86h11.95v11.8h-11.95v-11.8Z"/><path class="cls-10" d="m444.65,416.19h-12.21v-64.89h12.21v64.89Z"/><path class="cls-10" d="m359.05,360.17h12.21v47.19h-12.21v-47.19Z"/><path class="cls-10" d="m468.94,407.36h-11.77v-47.19h11.77v47.19Z"/><path class="cls-10" d="m408.27,360.17h11.82v47.16h-11.82v-47.16Z"/><path class="cls-10" d="m334.78,369.03h11.82v29.47h-11.82v-29.47Z"/><path class="cls-10" d="m395.48,398.5h-11.77v-29.49h11.77v29.49Z"/><path class="cls-10" d="m481.75,369.03h11.82v29.47h-11.82v-29.47Z"/></svg>