<?xml version="1.0" encoding="UTF-8"?><svg id="OBJECTS" xmlns="http://www.w3.org/2000/svg" viewBox="0 0 1280 1005.75"><defs><style>.cls-1{letter-spacing:-.02em;}.cls-2{fill:#757679;}.cls-2,.cls-3,.cls-4{isolation:isolate;opacity:.3;}.cls-2,.cls-3,.cls-4,.cls-5,.cls-6,.cls-7,.cls-8,.cls-9{stroke-width:0px;}.cls-3,.cls-5{fill:#5c5d60;}.cls-4{fill:#cfd1d2;}.cls-10{letter-spacing:-.05em;}.cls-11{letter-spacing:-.01em;}.cls-6,.cls-12{fill:#393;}.cls-7{fill:#2d9734;}.cls-8{fill:#65695b;}.cls-9,.cls-13{fill:#f69002;}.cls-13,.cls-12{font-family:MahmoudArt-Bold, MahmoudArt;font-size:67.77px;font-weight:700;}</style></defs><path class="cls-6" d="m629.91,244.97c1.28-2.45.93-3.98-2.1-4.68-15.94-3.68-24.61-14.96-30.33-29.27-1.01-13.61,1.63-26.01,12.48-35.35,5.37-4.61,11.47-7.66,20.63-6.29-5.18,5.26-10,8.78-12.97,13.96-6.51,11.39-4.44,26.44,4.96,34.8,10.12,9,24.61,9.37,35.87.54,3.17-2.48,5.69-5.84,8.5-8.8,5.35.77,2.29,4.3,2.23,6.84-3.74,12.98-12.97,20-25.46,23.5-2.94.82-7.08-.21-7.58,4.64-2.05,1.78-4.12,1.78-6.22.09h0Z"/><path class="cls-8" d="m766.15,439.6c-1.42,32.68-17.44,57.63-43.59,75.45-27.09,18.45-55.72,34.62-83.54,52-4.44,2.76-7.82,2.7-12.22-.05-27.83-17.37-55.91-34.34-83.69-51.76-31.67-19.85-49.67-60.94-41.3-93.42.74-2.87,1.74-5.7,2.92-8.42,1.88-4.31,4.6-6.51,7.69-1.14,18.89,32.73,49.56,52.9,78.5,75.21,16.95,13.08,29.76,30.25,37.23,50.83.85,2.35,1.34,5.73,4.28,6.07,4,.46,4.3-3.57,5.26-6.11,9.9-26.11,27.81-45.91,50.43-61.17,25.38-17.12,47.81-36.83,63.95-63.08,4.71-7.64,7.57-5.1,10.01,1.41,2.92,7.76,4.52,15.76,4.06,24.18l.02.02Z"/><path class="cls-3" d="m766.8,433.93c-1.42,32.68-17.44,57.63-43.59,75.45-27.09,18.45-55.72,34.62-83.54,52-4.44,2.76-7.82,2.7-12.22-.05-27.83-17.37-55.91-34.34-83.69-51.76-31.67-19.85-49.67-60.94-41.3-93.42.74-2.87,1.74-5.7,2.92-8.42,1.88-4.31,4.6-6.51,7.69-1.14,18.89,32.73,49.56,52.9,78.5,75.21,16.95,13.08,29.76,30.25,37.23,50.83.85,2.35,1.34,5.73,4.28,6.07,4,.46,4.3-3.57,5.26-6.11,9.9-26.11,27.81-45.91,50.43-61.17,25.38-17.12,47.81-36.83,63.95-63.08,4.71-7.64,7.57-5.1,10.01,1.41,2.92,7.76,4.52,15.76,4.06,24.18l.02.02Z"/><path class="cls-2" d="m768.58,421.96c-1.42,32.68-17.44,57.63-43.59,75.45-27.09,18.45-55.72,34.62-83.54,52-4.44,2.76-7.82,2.7-12.22-.05-27.83-17.37-55.91-34.34-83.69-51.76-31.67-19.85-49.67-60.94-41.3-93.42.74-2.87,1.74-5.7,2.92-8.42,1.88-4.31,4.6-6.51,7.69-1.14,18.89,32.73,49.56,52.9,78.5,75.21,16.95,13.08,29.76,30.25,37.23,50.83.85,2.35,1.34,5.73,4.28,6.07,4,.46,4.3-3.57,5.26-6.11,9.9-26.11,27.81-45.91,50.43-61.17,25.38-17.12,47.81-36.83,63.95-63.08,4.71-7.64,7.57-5.1,10.01,1.41,2.92,7.76,4.52,15.76,4.06,24.18l.02.02Z"/><path class="cls-4" d="m767.07,433.33c-1.42,26.44-17.44,46.64-43.58,61.06-27.07,14.93-55.71,28.02-83.51,42.09-4.44,2.24-7.82,2.2-12.22-.03-27.81-14.06-55.9-27.8-83.68-41.89-31.65-16.06-49.66-49.31-41.29-75.61.74-2.32,1.74-4.61,2.92-6.82,1.88-3.49,4.6-5.28,7.69-.92,18.89,26.49,49.56,42.8,78.48,60.87,16.93,10.58,29.74,24.48,37.21,41.13.85,1.91,1.34,4.64,4.28,4.91,4,.38,4.3-2.89,5.26-4.94,9.9-21.12,27.81-37.16,50.42-49.5,25.38-13.85,47.79-29.8,63.94-51.05,4.69-6.18,7.57-4.12,10.01,1.14,2.92,6.29,4.52,12.75,4.06,19.57v-.02Z"/><path class="cls-6" d="m629.91,244.97c2.07-.03,4.14-.06,6.22-.09,6.14-.05,10.03,4.58,14.69,7.39,24.24,14.64,48.87,28.79,72.32,44.64,27.83,18.8,44.38,44.78,44.02,79.62-.03,2.61-.08,5.26-.62,7.8-1.42,6.82-1.23,16.41-7.96,18.38-5.13,1.5-7.19-8.07-10.5-12.68-13.2-18.38-29.05-33.93-47.53-46.93-39.15-27.53-46.89-36.9-66.53-80-3.11,7.27-5.58,14.06-8.83,20.44-11.78,23.22-29.65,41-51.14,55.17-24.02,15.84-44.15,35.4-59.53,59.77-1.3,2.04-1.99,5.59-5.26,4.88-2.72-.58-3.35-3.77-4.17-6.16-9.08-26.12-3.05-49.94,11.45-72.28,6.76-10.41,15.37-19.33,25.65-26.27,28.41-19.21,58.08-36.41,87.71-53.67v-.02Z"/><polygon class="cls-9" points="555.12 402.63 555.12 382.57 572.49 392.6 589.87 402.63 572.49 412.66 555.12 422.69 555.12 402.63"/><path class="cls-5" d="m628.39,572.47c-23.8,14.44-46.97,28.48-71.88,43.58-.09-3.43-.81-6-.13-8.12,2.69-8.31,7.63-14.42,15.97-18.42,7.2-3.46,13.55-8.75,20.07-13.5,2.29-1.66,4.6-3.85,5.76-6.33.95-2.01,1.14-5.67-.09-7-1.23-1.34-5.05-1.69-6.97-.81-5.02,2.32-9.63,5.56-14.55,8.51,1.11-7.87,10.41-17.42,17.6-18.12.84-.08,1.85.39,2.62.87,10.31,6.27,20.58,12.57,31.6,19.32l-.02.02Z"/><path class="cls-5" d="m636.79,572.45c11.17-6.81,21.59-13.22,32.08-19.51.81-.49,2.29-.63,3.1-.22,7.47,3.82,15.29,7.39,17.12,17.9-5.13-3.06-9.62-6.25-14.55-8.47-2.1-.95-6.19-.84-7.41.54-1.25,1.41-1.09,5.77.22,7.39,3.21,3.98,7.23,7.41,11.34,10.52,4.42,3.36,9,6.85,14.07,8.96,8.61,3.55,13.27,10.05,16,18.32.69,2.08.11,4.58.11,8.26-24.89-15.08-48.16-29.19-72.1-43.7l.02.02Z"/><path class="cls-5" d="m599.71,565.71c-7.96,4.91-14.34,8.84-21.07,13-1.03-1.45-1.97-2.78-3.27-4.61,6.35-3.57,12.3-7.08,18.46-10.17,1.01-.51,2.97.84,5.88,1.77v.02Z"/><path class="cls-5" d="m689.48,574.33c-.92,1.47-1.71,2.73-2.76,4.44-6.68-4.11-13.14-8.07-19.66-12.07,3.84-4.28,5.78-3.62,22.43,7.63Z"/><text class="cls-13" transform="translate(458.05 682.51)"><tspan class="cls-10" x="0" y="0">W</tspan><tspan class="cls-11" x="60.73" y="0">a</tspan><tspan x="95.22" y="0">y2</tspan></text><text class="cls-12" transform="translate(628.94 682.51)"><tspan x="0" y="0">Qu</tspan><tspan class="cls-1" x="86.28" y="0">r</tspan><tspan x="108.98" y="0">an</tspan></text><path class="cls-6" d="m437.61,747.82c0,2.54-.82,4.69-2.35,6.49-1.58,1.8-3.52,2.67-5.72,2.67s-4.14-.87-5.72-2.67-2.35-3.93-2.35-6.49v-14.42l-6.79-3.36v17.77c0,4.69,1.42,8.62,4.34,11.92,2.91,3.3,6.38,4.93,10.52,4.93s7.61-1.63,10.47-4.93c2.91-3.3,4.39-7.23,4.39-11.92v-25.82h-6.79v25.84Z"/><rect class="cls-7" x="425.37" y="721.99" width="6.79" height="7.71"/><rect class="cls-6" x="452.58" y="711.46" width="6.79" height="40.05"/><path class="cls-6" d="m464.73,706.18v-5.39c-1.17,1.28-2.4,1.74-3.62,1.74-3.11,0-6.29-3.02-9.33-3.02-1.17,0-2.29.46-3.43,1.67v5.28c1.17-1.11,2.35-1.45,3.52-1.45,3.11,0,6.18,2.67,9.29,2.67,1.17,0,2.4-.41,3.57-1.5h0Z"/><path class="cls-6" d="m474.43,721.99h-6.79v24.02c0,4.86-2.95,9.14-7.04,9.14v7.71c5.72,0,11.18-4.63,13.01-11.34h8.01v-7.71h-7.2v-21.83h.02Z"/><path class="cls-6" d="m518.02,737.05c-.3-8.34-7-15.12-14.8-15.12-8.94,0-14.18,7.88-14.18,15.51,0,2.2.41,4.41,1.28,6.37h-8.67v7.71h43.7v-7.71h-7.3v-6.78l-.03.02Zm-6.79,6.78h-7.5c-3.47,0-8.12-1.45-8.12-6.6,0-3.71,2.95-7.58,7.61-7.58,4.28,0,8.07,3.65,8.07,8.28,0,2.02-.05,3.93-.05,5.91h-.02Z"/><rect class="cls-6" x="504.34" y="711.46" width="6.79" height="7.71"/><rect class="cls-6" x="495.72" y="711.46" width="6.79" height="7.71"/><polygon class="cls-6" points="532.58 743.82 525.33 743.82 525.33 751.51 539.37 751.51 539.37 711.51 532.58 711.51 532.58 743.82"/><rect class="cls-6" x="548" y="711.46" width="6.79" height="40.05"/><rect class="cls-9" x="706.97" y="711.46" width="6.79" height="7.71"/><rect class="cls-9" x="698.34" y="711.46" width="6.79" height="7.71"/><rect class="cls-9" x="582.46" y="755.23" width="6.79" height="7.71"/><rect class="cls-9" x="591.04" y="755.23" width="6.79" height="7.71"/><path class="cls-9" d="m624.52,735.72c-.57-7.64-6.29-13.77-13.01-13.77-7.09,0-13.06,6.89-13.01,14.99l.05,6.89h-10.61c-3.82,0-6.95-3.24-6.95-7.06,0-2.43,1.12-4.69,3.32-6.08v-8.23c-6.02,1.67-10.11,7.76-10.11,14.29,0,7.64,5.67,14.25,12.56,14.7l18.53.06v-14.59c0-4.06,2.7-7.53,6.22-7.53s6.22,3.36,6.22,7.53v14.59h14.04v-7.71h-7.2l-.05-8.1.02.02Z"/><polygon class="cls-9" points="639.02 743.82 631.77 743.82 631.77 751.51 645.81 751.51 645.81 711.51 639.02 711.51 639.02 743.82"/><rect class="cls-9" x="654.55" y="711.46" width="6.79" height="40.05"/><path class="cls-9" d="m657.56,760.14c0-1.63,1.23-3.3,3.27-3.3.51,0,1.03.11,1.42.28v-3.41c-.46-.11-.92-.17-1.42-.17-3.89,0-6.08,3.36-6.13,6.67,0,.35.05.69.09,1.04h-1.42v3.3h9.24v-3.3h-4.85c-.16-.35-.21-.76-.21-1.11h0Z"/><path class="cls-9" d="m720.91,737.05c-.3-8.39-7.09-15.12-14.85-15.12-8.88,0-14.14,7.88-14.14,15.51,0,7.06,4.14,13.9,13.79,14.07h7.04c-1.07,2.43-3.36,3.71-5.62,3.71h-11.85c-4.44,0-8.07-4.11-8.07-9.14v-14.42l-6.79-3.36v17.77c0,9.26,6.68,16.85,14.85,16.85h11.85c5.81,0,11.14-4.52,13.06-11.4h7.96v-7.71h-7.25v-6.78l.02.02Zm-6.79,6.78h-8.07c-5.26,0-7.55-3.13-7.55-6.49,0-3.71,2.81-7.71,7.55-7.71,2.24,0,4.14.81,5.72,2.43,3.02,3.13,2.35,7.58,2.35,11.75v.02Z"/><polygon class="cls-9" points="742.25 721.99 735.46 721.99 735.46 743.82 728.16 743.82 728.16 751.51 742.25 751.51 742.25 721.99"/><rect class="cls-9" x="736.74" y="755.23" width="6.79" height="7.71"/><rect class="cls-9" x="728.16" y="755.23" width="6.79" height="7.71"/><path class="cls-9" d="m760.84,721.99h-6.79v24.02c0,4.86-2.95,9.14-7.04,9.14v7.71c5.72,0,11.18-4.63,13.01-11.34h8.01v-7.71h-7.2v-21.83h.02Z"/><path class="cls-9" d="m810.45,736.76c0-8.17-6.22-14.7-13.73-14.7h-14.8v-10.53h-6.79v32.3h-7.09v7.71h49.67v-7.71h-8.88c1.07-2.08,1.63-4.45,1.63-7.06h-.02Zm-13.73,7.06h-10.87l-3.93,3.41v-17.55h14.8c3.62,0,6.89,3.02,6.89,7.06s-3.16,7.06-6.89,7.06v.02Z"/><polygon class="cls-9" points="824.97 743.82 817.72 743.82 817.72 751.51 831.74 751.51 831.74 711.51 824.97 711.51 824.97 743.82"/><rect class="cls-9" x="840.38" y="711.46" width="6.79" height="40.05"/><path class="cls-9" d="m729.7,405.9h-7.49v-7.17h7.49v7.17Z"/><path class="cls-9" d="m603.13,398.73h7.27v7.17h-7.27v-7.17Z"/><path class="cls-9" d="m684.93,422.03h-7.42v-39.44h7.42v39.44Z"/><path class="cls-9" d="m632.91,387.97h7.42v28.68h-7.42v-28.68Z"/><path class="cls-9" d="m699.7,416.66h-7.15v-28.68h7.15v28.68Z"/><path class="cls-9" d="m662.82,387.97h7.19v28.67h-7.19v-28.67Z"/><path class="cls-9" d="m618.16,393.36h7.19v17.91h-7.19v-17.91Z"/><path class="cls-9" d="m655.05,411.27h-7.15v-17.93h7.15v17.93Z"/><path class="cls-9" d="m707.49,393.36h7.19v17.91h-7.19v-17.91Z"/></svg>