<svg xmlns="http://www.w3.org/2000/svg" width="1484" height="475.8" viewBox="0 0 1484 475.8"><g transform="translate(-360 -342.2)"><path d="M1669.824,618.147a2.116,2.116,0,0,0,2.116-2.108v-.411a2.12,2.12,0,0,0-2.116-2.126H1666.9c2.08-4.608,2.762-11.2.932-15.914-3.318-8.555-11.639-13.324-18.543-17.772a4.844,4.844,0,0,0-.3-2.84c-1.022-2.411-3.533-3.858-5.488-5.108l-.072-1.679a2.124,2.124,0,0,0-.143-3.751l-.054-1.3a1.612,1.612,0,0,0,.789-1.375,1.667,1.667,0,0,0-.915-1.482l-.5-12.824a.243.243,0,1,0-.484,0l-.52,12.824a1.684,1.684,0,0,0-.9,1.482,1.612,1.612,0,0,0,.789,1.375l-.054,1.3a2.124,2.124,0,0,0-.144,3.751l-.072,1.679c-1.973,1.25-4.466,2.7-5.488,5.108a4.7,4.7,0,0,0-.3,2.84c-6.9,4.447-15.225,9.216-18.543,17.772-1.829,4.715-1.148,11.306.933,15.914h-2.923a2.124,2.124,0,0,0-2.134,2.126v.411a2.12,2.12,0,0,0,2.134,2.108h1.255v29.024a3.7,3.7,0,0,0-3.389,3.661v.715a3.712,3.712,0,0,0,3.712,3.7h2.421v62h-2.421a3.712,3.712,0,0,0-3.712,3.7v.7a3.7,3.7,0,0,0,3.712,3.7h2.421v36.561c-20.086-36.061-57.925-58.03-90.008-78.66a24.684,24.684,0,0,0-1.56-14.825c-5.326-12.485-18.346-20.022-28.55-26.542l-.359-8.734a11.118,11.118,0,0,0-.789-19.576l-.251-6.519a8.751,8.751,0,0,0-.61-15.182l-2.654-66.64a1.436,1.436,0,0,0-2.869,0l-2.672,66.64a8.751,8.751,0,0,0-.61,15.182l-.251,6.519a11.134,11.134,0,0,0-.789,19.576l-.341,8.734c-10.222,6.519-23.242,14.057-28.55,26.542a24.556,24.556,0,0,0-1.578,14.825c-7.12,4.59-14.544,9.234-21.986,14.092V675.392h2.582a3.7,3.7,0,0,0,3.712-3.7v-2.626a3.689,3.689,0,0,0-3.712-3.7h-2.582V588.641h2.582a3.7,3.7,0,0,0,3.712-3.7v-2.625a3.685,3.685,0,0,0-3.461-3.679V542.756h1.327a2.135,2.135,0,0,0,2.134-2.125v-1.5a2.124,2.124,0,0,0-2.134-2.125h-3.049c2.134-5.716,2.833-13.86.95-19.7-3.407-10.592-11.944-16.486-19.045-21.987a6.982,6.982,0,0,0-.323-3.536c-1.04-2.965-3.623-4.751-5.631-6.3l-.072-2.09a2.926,2.926,0,0,0-.144-4.644l-.054-1.554a2.218,2.218,0,0,0,.807-1.768,2.158,2.158,0,0,0-.932-1.84l-.52-15.861a.317.317,0,0,0-.251-.321.3.3,0,0,0-.251.321l-.538,15.861a2.189,2.189,0,0,0-.915,1.84,2.218,2.218,0,0,0,.807,1.768l-.054,1.554a2.913,2.913,0,0,0-.161,4.644l-.054,2.09c-2.026,1.554-4.591,3.34-5.649,6.3a6.975,6.975,0,0,0-.3,3.536c-7.1,5.5-15.656,11.4-19.063,21.987-1.883,5.841-1.184,13.985.969,19.7h-3.067a2.123,2.123,0,0,0-2.134,2.125v1.5a2.135,2.135,0,0,0,2.134,2.125h1.345v35.883a3.7,3.7,0,0,0-3.479,3.679v2.625a3.712,3.712,0,0,0,3.712,3.7h2.6v76.731h-2.6a3.7,3.7,0,0,0-3.712,3.7v2.626a3.712,3.712,0,0,0,3.712,3.7h2.6v60.013c-11.011,11.538-20.247,24.7-26.308,40.277-.843,2.2-1.578,4.465-2.224,6.787-5.075-3.447-10.222-6.644-15.082-9.77a12.143,12.143,0,0,0-.771-7.287c-2.618-6.126-9.021-9.841-14.042-13.039l-.161-4.3a5.435,5.435,0,0,0-.395-9.591l-.126-3.233a4.271,4.271,0,0,0-.287-7.43l-1.309-32.775a.7.7,0,0,0-.717-.679.681.681,0,0,0-.7.679l-1.309,32.775a4.281,4.281,0,0,0-.3,7.43l-.125,3.233a5.442,5.442,0,0,0-.377,9.591l-.179,4.3c-5.021,3.2-11.424,6.912-14.024,13.039a12.143,12.143,0,0,0-.771,7.287c-13.5,8.68-29.088,17.861-39.472,31.453v-25.7h1.542a3.027,3.027,0,1,0,0-6.055h-1.542V726.046h1.542a3.021,3.021,0,0,0,.5-6V698.326h.789a1.733,1.733,0,1,0,0-3.465h-2.044c1.578-3.447,2.08-8.377.717-11.9-2.493-6.394-8.7-9.966-13.881-13.289a3.48,3.48,0,0,0-.215-2.125c-.771-1.786-2.636-2.876-4.107-3.8l-.054-1.286a1.583,1.583,0,0,0,.789-1.357,1.545,1.545,0,0,0-.9-1.411l-.036-.982a1.255,1.255,0,0,0,.592-1.036,1.272,1.272,0,0,0-.681-1.107l-.377-9.591a.18.18,0,1,0-.359,0l-.395,9.591a1.256,1.256,0,0,0-.664,1.107,1.214,1.214,0,0,0,.592,1.036l-.054.982a1.56,1.56,0,0,0-.108,2.768l-.054,1.286c-1.471.929-3.336,2.018-4.089,3.8a3.49,3.49,0,0,0-.233,2.125c-5.165,3.322-11.388,6.894-13.863,13.289-1.363,3.519-.861,8.448.7,11.9h-2.027a1.733,1.733,0,1,0,0,3.465h.771v21.719a3.021,3.021,0,0,0,.52,6h1.542V772.4h-1.542a3.028,3.028,0,1,0,0,6.055h1.542V811.6c-7.694-7.895-17.521-13.753-26.237-19.361a9.419,9.419,0,0,0-.592-5.644c-2.026-4.751-6.976-7.609-10.868-10.091l-.125-3.34a4.206,4.206,0,0,0,2.08-3.626,4.25,4.25,0,0,0-2.385-3.787l-.108-2.5a3.3,3.3,0,0,0-.215-5.751l-1.022-25.381a.522.522,0,0,0-.538-.518.536.536,0,0,0-.556.518l-1,25.381a3.309,3.309,0,0,0-.233,5.751l-.108,2.5a4.206,4.206,0,0,0-.287,7.412l-.144,3.34c-3.874,2.483-8.841,5.341-10.85,10.091a9.284,9.284,0,0,0-.592,5.644c-7.424,4.769-15.638,9.716-22.668,15.95a68.231,68.231,0,0,0-7.783-14.075V755.749h1.542a3.021,3.021,0,0,0,.5-6v-21.7h.789a1.741,1.741,0,0,0,0-3.483h-2.044c1.578-3.447,2.08-8.377.717-11.9-2.493-6.394-8.7-9.966-13.88-13.289a3.48,3.48,0,0,0-.216-2.125c-.771-1.786-2.636-2.876-4.107-3.8l-.054-1.286a1.583,1.583,0,0,0,.789-1.357,1.544,1.544,0,0,0-.9-1.411l-.036-.982a1.231,1.231,0,0,0,.592-1.036,1.272,1.272,0,0,0-.681-1.107l-.377-9.591a.18.18,0,1,0-.359,0l-.394,9.591a1.256,1.256,0,0,0-.664,1.107,1.192,1.192,0,0,0,.592,1.036l-.054.982a1.56,1.56,0,0,0-.108,2.768l-.054,1.286c-1.453.929-3.336,2.018-4.089,3.8a3.488,3.488,0,0,0-.233,2.125c-5.165,3.322-11.388,6.894-13.863,13.289-1.363,3.519-.861,8.448.7,11.9h-2.026a1.741,1.741,0,1,0,0,3.483h.771v21.7a3.021,3.021,0,0,0,.52,6h1.542v7.341c-4.932-3.251-9.864-6.341-14.58-9.377a14.852,14.852,0,0,0-.933-8.877c-3.192-7.484-10.993-12-17.127-15.914l-.2-5.251a6.636,6.636,0,0,0-.466-11.681l-.161-3.947a5.23,5.23,0,0,0-.359-9.073l-1.6-39.955a.836.836,0,0,0-.861-.822.816.816,0,0,0-.861.822l-1.6,39.955a5.212,5.212,0,0,0-.359,9.073l-.162,3.947a6.62,6.62,0,0,0-.466,11.681l-.215,5.251c-6.133,3.912-13.934,8.43-17.109,15.914a14.715,14.715,0,0,0-.933,8.877c-14.956,9.609-31.993,19.718-44.493,33.9a3.588,3.588,0,0,0-1.381-.268h-2.421V725.331h2.421a3.7,3.7,0,0,0,3.712-3.7v-.7a3.712,3.712,0,0,0-3.712-3.7h-2.421v-62h2.421a3.712,3.712,0,0,0,3.712-3.7v-.715a3.7,3.7,0,0,0-3.389-3.661V618.147h1.255a2.131,2.131,0,0,0,2.134-2.108v-.411a2.135,2.135,0,0,0-2.134-2.126h-2.923c2.08-4.608,2.762-11.2.932-15.914-3.318-8.555-11.639-13.324-18.543-17.772a4.841,4.841,0,0,0-.3-2.84c-1.022-2.411-3.515-3.858-5.488-5.108l-.072-1.679a2.124,2.124,0,0,0-.144-3.751l-.054-1.3a1.612,1.612,0,0,0,.789-1.375,1.685,1.685,0,0,0-.9-1.482l-.52-12.824a.243.243,0,1,0-.484,0l-.52,12.824a1.685,1.685,0,0,0-.9,1.482,1.612,1.612,0,0,0,.789,1.375l-.054,1.3a2.124,2.124,0,0,0-.143,3.751l-.072,1.679c-1.955,1.25-4.465,2.7-5.488,5.108a4.842,4.842,0,0,0-.3,2.84c-6.9,4.447-15.226,9.216-18.543,17.772-1.829,4.715-1.148,11.306.933,15.914H955.98a2.135,2.135,0,0,0-2.134,2.126v.411a2.131,2.131,0,0,0,2.134,2.108h1.255v29.024a3.7,3.7,0,0,0-3.389,3.661v.715a3.716,3.716,0,0,0,3.73,3.7h2.4v54.744c-24.73-29.221-59.36-49.689-89.632-69.158a28.951,28.951,0,0,0-1.847-17.45c-6.259-14.717-21.592-23.594-33.625-31.275l-.412-10.288a13.084,13.084,0,0,0-.933-23.041l-.3-7.7a10.3,10.3,0,0,0-.717-17.879l-2.869-72.1c.43.018.861.036,1.309.036a46.929,46.929,0,0,0,47.022-46.885.64.64,0,0,0-1.255-.179,37.188,37.188,0,0,1-35.921,27.452c-43.291,0-51.326-61.692-9.63-72.8a.646.646,0,0,0-.215-1.268,46.831,46.831,0,0,0-5.183,93.4L822.859,533.2a10.308,10.308,0,0,0-.7,17.879l-.323,7.7a13.091,13.091,0,0,0-.914,23.041l-.413,10.288c-12.033,7.68-27.366,16.557-33.625,31.275a28.949,28.949,0,0,0-1.847,17.45c-18.561,11.931-38.736,24.255-57.3,38.723V623.488h3.21A3.036,3.036,0,0,0,734,620.469v-2.215a3.025,3.025,0,0,0-3.049-3.018h-3.21V551.972h3.21A3.036,3.036,0,0,0,734,548.954v-2.215a3.036,3.036,0,0,0-3.049-3.018h-.394V514.143h1.7A1.749,1.749,0,0,0,734,512.41v-1.268a1.738,1.738,0,0,0-1.74-1.733h-3.425c2.134-4.715,2.834-11.431.969-16.236-3.389-8.734-11.872-13.61-18.938-18.147a4.738,4.738,0,0,0-.3-2.893c-1.04-2.447-3.587-3.929-5.6-5.215l-.072-1.715a2.168,2.168,0,0,0-.144-3.822l-.054-1.286a1.7,1.7,0,0,0-.126-2.965l-.52-13.074a.249.249,0,0,0-.251-.268.236.236,0,0,0-.233.268l-.538,13.074a1.709,1.709,0,0,0-.108,2.965l-.054,1.286a2.177,2.177,0,0,0-.161,3.822l-.054,1.715c-2.009,1.286-4.573,2.768-5.613,5.215a4.874,4.874,0,0,0-.3,2.893c-7.048,4.537-15.53,9.413-18.92,18.147-1.865,4.8-1.166,11.52.95,16.236h-3.407a1.726,1.726,0,0,0-1.74,1.733v1.268a1.738,1.738,0,0,0,1.74,1.732h1.7V543.72h-.412a3.032,3.032,0,0,0-3.031,3.018v2.215a3.032,3.032,0,0,0,3.031,3.018h3.228v63.264h-3.228a3.021,3.021,0,0,0-3.031,3.018v2.215a3.032,3.032,0,0,0,3.031,3.018h3.228v63.264h-3.228a3.021,3.021,0,0,0-3.031,3.019v2.215A3.032,3.032,0,0,0,676.647,695h3.228v16.718c-7.478-4.912-14.957-9.591-22.13-14.2a22.512,22.512,0,0,0-1.435-13.61c-4.878-11.485-16.839-18.415-26.237-24.4l-.323-8.02a10.222,10.222,0,0,0-.717-17.986l-.233-6a8.032,8.032,0,0,0-.556-13.949l-2.457-61.228a1.31,1.31,0,0,0-2.618,0l-2.457,61.228a8.032,8.032,0,0,0-.556,13.949l-.233,6a10.221,10.221,0,0,0-.717,17.986l-.323,8.02c-9.4,5.984-21.359,12.914-26.237,24.4a22.513,22.513,0,0,0-1.435,13.61c-21.843,14.039-46.591,28.774-65.457,48.939V705.416h.771a3.027,3.027,0,1,0,0-6.055h-.771V653.012h.771a3.009,3.009,0,0,0,.933-5.876V625.292h.359a1.733,1.733,0,1,0,0-3.465h-1.4a19.839,19.839,0,0,0,.592-11.9c-2.062-6.394-7.227-9.966-11.531-13.289a4.292,4.292,0,0,0-.179-2.125c-.646-1.786-2.206-2.876-3.425-3.8l-.036-1.286a1.684,1.684,0,0,0,.646-1.357,1.619,1.619,0,0,0-.735-1.411l-.036-.982a1.306,1.306,0,0,0,.484-1.036,1.282,1.282,0,0,0-.556-1.107l-.323-9.591a.151.151,0,1,0-.287,0l-.323,9.591a1.3,1.3,0,0,0-.574,1.107,1.32,1.32,0,0,0,.5,1.036l-.036.982a1.709,1.709,0,0,0-.09,2.768l-.054,1.286c-1.22.929-2.762,2.018-3.407,3.8a4.293,4.293,0,0,0-.179,2.125c-4.3,3.322-9.469,6.894-11.531,13.289a19.84,19.84,0,0,0,.592,11.9h-1.4a1.733,1.733,0,1,0,0,3.465h.341v21.844a3.009,3.009,0,0,0,.95,5.876h.771v46.349h-.771a3.028,3.028,0,1,0,0,6.055h.771v42.938c-15.638-14.092-34.092-25.22-50.716-35.9a20.524,20.524,0,0,0-1.309-12.36c-4.43-10.413-15.279-16.7-23.8-22.13l-.3-7.287a9.251,9.251,0,0,0-.646-16.307l-.215-5.448a7.3,7.3,0,0,0-.5-12.663l-2.224-55.566a1.15,1.15,0,0,0-1.2-1.143,1.135,1.135,0,0,0-1.184,1.143l-2.224,55.566a7.3,7.3,0,0,0-.5,12.663l-.215,5.448a9.26,9.26,0,0,0-.664,16.307l-.287,7.287c-8.518,5.43-19.386,11.717-23.816,22.13a20.517,20.517,0,0,0-1.291,12.36c-7.819,5.037-16.051,10.163-24.21,15.646V694.4H364.1a3.712,3.712,0,0,0,3.712-3.7v-1.893a3.712,3.712,0,0,0-3.712-3.7h-2.816V613.986H364.1a3.7,3.7,0,0,0,3.712-3.7V608.4a3.7,3.7,0,0,0-3.587-3.679V571.441h1.453a2.12,2.12,0,0,0,2.134-2.108v-1.09a2.123,2.123,0,0,0-2.134-2.125h-3.246c2.224-5.3,2.959-12.842,1-18.254-3.533-9.824-12.374-15.289-19.727-20.379a5.658,5.658,0,0,0-.323-3.269c-1.076-2.768-3.73-4.43-5.828-5.858l-.072-1.929a2.542,2.542,0,0,0-.161-4.3l-.054-1.447a1.977,1.977,0,0,0,.843-1.643,1.943,1.943,0,0,0-.968-1.7l-.538-14.7a.3.3,0,0,0-.251-.3.31.31,0,0,0-.269.3l-.538,14.7a1.943,1.943,0,0,0-.968,1.7,2,2,0,0,0,.843,1.643l-.054,1.447a2.542,2.542,0,0,0-.161,4.3l-.072,1.929c-2.08,1.429-4.752,3.09-5.828,5.858a5.812,5.812,0,0,0-.323,3.269c-7.353,5.09-16.194,10.556-19.727,20.379-1.937,5.412-1.219,12.949,1,18.254h-3.246a2.135,2.135,0,0,0-2.134,2.125v1.09a2.131,2.131,0,0,0,2.134,2.108h1.47v33.275a3.7,3.7,0,0,0-3.6,3.679v1.893a3.7,3.7,0,0,0,3.712,3.7h2.816v71.123H308.6a3.712,3.712,0,0,0-3.712,3.7V690.7a3.712,3.712,0,0,0,3.712,3.7h2.816v71.123H308.6a3.712,3.712,0,0,0-3.712,3.7v1.893a3.712,3.712,0,0,0,3.712,3.7h2.816v1.554a92.662,92.662,0,0,0-6.4,13.2c-.359.929-.682,1.893-.986,2.858-8.859-7.627-19.045-13.789-28.263-19.718a12.142,12.142,0,0,0-.771-7.287c-2.6-6.126-9-9.841-14.024-13.039l-.179-4.3a5.442,5.442,0,0,0-.377-9.591l-.143-3.233a4.271,4.271,0,0,0-.287-7.43l-1.309-32.775a.709.709,0,0,0-1.417,0l-1.309,32.775a4.271,4.271,0,0,0-.287,7.43l-.125,3.233a5.435,5.435,0,0,0-.395,9.591l-.161,4.3c-5.021,3.2-11.424,6.912-14.042,13.039a12.142,12.142,0,0,0-.771,7.287c-2.618,1.679-5.308,3.376-8.016,5.126a2.908,2.908,0,0,0,.036-.393,3.04,3.04,0,0,0-3.049-3.036h-1.542V728.064h1.542a3.028,3.028,0,1,0,0-6.055h-1.542V675.66h1.542a3.021,3.021,0,0,0,.52-6V647.94h.789a1.733,1.733,0,1,0,0-3.465H228.4c1.56-3.465,2.08-8.377.7-11.9-2.475-6.394-8.7-9.966-13.863-13.289a3.467,3.467,0,0,0-.215-2.125c-.771-1.8-2.636-2.876-4.107-3.822l-.054-1.268a1.583,1.583,0,0,0,.789-1.357,1.623,1.623,0,0,0-.9-1.429l-.036-.964a1.286,1.286,0,0,0,.592-1.054,1.266,1.266,0,0,0-.682-1.089l-.377-9.591a.188.188,0,1,0-.377,0l-.377,9.591a1.266,1.266,0,0,0-.682,1.089,1.286,1.286,0,0,0,.592,1.054l-.036.964a1.623,1.623,0,0,0-.9,1.429,1.583,1.583,0,0,0,.789,1.357l-.054,1.268c-1.471.947-3.336,2.018-4.107,3.822a3.6,3.6,0,0,0-.215,2.125c-5.165,3.322-11.388,6.894-13.863,13.289-1.381,3.519-.861,8.43.7,11.9H189.68a1.733,1.733,0,1,0,0,3.465h.789v21.719a3.035,3.035,0,0,0-2.529,2.983,2.921,2.921,0,0,0,.323,1.3v169.3H1665.825V795.436h2.4a3.7,3.7,0,0,0,3.712-3.7v-.7a3.689,3.689,0,0,0-3.712-3.7h-2.4V725.331h2.4a3.689,3.689,0,0,0,3.712-3.7v-.7a3.7,3.7,0,0,0-3.712-3.7h-2.4v-62h2.4a3.7,3.7,0,0,0,3.712-3.7v-.715a3.68,3.68,0,0,0-3.371-3.661V618.147ZM193.338,668.8h-.018v-2.572h.018A1.287,1.287,0,0,1,193.338,668.8Zm4.5,0a1.287,1.287,0,0,1,0-2.572A1.287,1.287,0,0,1,197.839,668.8Zm2.278-9.109v6.859a2.493,2.493,0,0,0-2.278-1.518,2.531,2.531,0,0,0-2.26,1.447,2.5,2.5,0,0,0-2.242-1.447h-.018V647.94h.108c.807.554,2.08,1.2,1.811,2.358,1.937,1.232,4.232,2.554,5.165,4.93A6.305,6.305,0,0,1,200.117,659.692Zm5.434,9.109a1.287,1.287,0,0,1,0-2.572A1.287,1.287,0,0,1,205.551,668.8Zm4.519,0a1.286,1.286,0,0,1,0-2.572A1.286,1.286,0,0,1,210.07,668.8Zm4.5,0a1.286,1.286,0,0,1,0-2.572A1.286,1.286,0,0,1,214.571,668.8Zm2.3-9.109v6.894a2.5,2.5,0,0,0-2.3-1.554,2.551,2.551,0,0,0-2.26,1.447,2.5,2.5,0,0,0-2.242-1.447,2.531,2.531,0,0,0-2.26,1.447,2.551,2.551,0,0,0-2.26-1.447,2.523,2.523,0,0,0-2.3,1.554v-6.894a6.207,6.207,0,0,1-.269-4.465c.933-2.376,3.228-3.7,5.147-4.93a1.3,1.3,0,0,1,.09-.786,3.568,3.568,0,0,1,1.56-1.447,1.55,1.55,0,0,0,.179-.125h.2c.054.036.126.089.179.125a3.568,3.568,0,0,1,1.56,1.447,1.3,1.3,0,0,1,.09.786c1.919,1.232,4.232,2.554,5.147,4.93A6.207,6.207,0,0,1,216.867,659.692Zm5.416,9.109a1.286,1.286,0,0,1,0-2.572A1.286,1.286,0,0,1,222.283,668.8Zm4.519,0h-.018a1.287,1.287,0,0,1,0-2.572h.018Zm0-3.769h-.018a2.525,2.525,0,0,0-2.242,1.447,2.531,2.531,0,0,0-2.26-1.447,2.493,2.493,0,0,0-2.278,1.518v-6.859a6.305,6.305,0,0,1-.287-4.465c.933-2.376,3.246-3.7,5.165-4.93a1.175,1.175,0,0,1,.072-.786,3.609,3.609,0,0,1,1.578-1.447c.054-.036.108-.089.161-.125h.108Zm.789,115.757v-.339h.52C227.932,780.558,227.77,780.665,227.591,780.79ZM312.56,603.466h-.018v-3.947a.018.018,0,0,1,.018-.018C314.945,599.5,314.909,603.341,312.56,603.466Zm6.4,0c-2.349-.125-2.367-3.965,0-3.965C321.348,599.5,321.33,603.341,318.962,603.466Zm3.246-14V600a3.427,3.427,0,0,0-6.456-.089,3.551,3.551,0,0,0-3.192-2.233h-.018V571.441h.143c1.148.839,2.959,1.84,2.6,3.608,2.726,1.911,6.008,3.929,7.317,7.591A10.159,10.159,0,0,1,322.208,589.463Zm7.729,14c-2.367-.125-2.385-3.965,0-3.965S332.3,603.341,329.938,603.466Zm6.42,0c-2.367-.125-2.385-3.965,0-3.965C338.725,599.5,338.707,603.341,336.358,603.466Zm6.4,0c-2.349-.125-2.385-3.965,0-3.965S345.127,603.341,342.76,603.466Zm3.264-14v10.592a3.6,3.6,0,0,0-3.264-2.375,3.551,3.551,0,0,0-3.192,2.233,3.6,3.6,0,0,0-3.21-2.233,3.556,3.556,0,0,0-3.21,2.233,3.427,3.427,0,0,0-6.474.143V589.463a10.154,10.154,0,0,1-.377-6.823c1.309-3.662,4.591-5.68,7.317-7.591a1.965,1.965,0,0,1,.125-1.2,5.455,5.455,0,0,1,2.224-2.233,2.173,2.173,0,0,0,.251-.179h.287a2.03,2.03,0,0,0,.233.179,5.6,5.6,0,0,1,2.242,2.233,2.1,2.1,0,0,1,.108,1.2c2.744,1.911,6.026,3.929,7.335,7.591A10.268,10.268,0,0,1,346.024,589.463Zm7.711,14c-2.367-.125-2.385-3.965,0-3.965S356.1,603.341,353.736,603.466Zm6.42,0a1.911,1.911,0,0,1-1.775-2.036,1.788,1.788,0,0,1,1.775-1.929Zm0-5.787a3.575,3.575,0,0,0-3.21,2.233,3.427,3.427,0,0,0-6.456.089V589.463a10.159,10.159,0,0,1-.394-6.823c1.309-3.662,4.591-5.68,7.335-7.591a2.1,2.1,0,0,1,.108-1.2,5.5,5.5,0,0,1,2.242-2.233,2.044,2.044,0,0,0,.233-.179h.143Zm137.1,48.493v-2.59C498.656,643.581,498.638,646.082,497.258,646.171Zm3.748,0c-1.381-.089-1.381-2.59,0-2.59C502.4,643.581,502.387,646.082,501.006,646.171Zm1.9-9.127V643.9a2.143,2.143,0,0,0-1.9-1.518,2.1,2.1,0,0,0-1.865,1.465,2.127,2.127,0,0,0-1.883-1.465V625.292h.09c.664.554,1.722,1.2,1.506,2.358,1.6,1.232,3.515,2.554,4.286,4.93A7.318,7.318,0,0,1,502.907,637.044Zm4.519,9.127c-1.381-.089-1.4-2.59,0-2.59S508.807,646.082,507.426,646.171Zm3.748,0c-1.381-.089-1.4-2.59,0-2.59S512.555,646.082,511.174,646.171Zm3.748,0c-1.381-.089-1.4-2.59,0-2.59S516.3,646.082,514.922,646.171Zm1.9-9.127v6.894a2.137,2.137,0,0,0-1.9-1.554,2.086,2.086,0,0,0-1.865,1.465,1.943,1.943,0,0,0-3.766,0,2.086,2.086,0,0,0-1.865-1.465,2.138,2.138,0,0,0-1.9,1.554v-6.894a7.318,7.318,0,0,1-.233-4.465c.771-2.376,2.69-3.7,4.286-4.93a1.463,1.463,0,0,1,.072-.786,3.309,3.309,0,0,1,1.291-1.447.483.483,0,0,0,.143-.125h.179a.482.482,0,0,0,.143.125,3.309,3.309,0,0,1,1.291,1.447,1.464,1.464,0,0,1,.072.786c1.6,1.232,3.515,2.554,4.286,4.93A7.317,7.317,0,0,1,516.823,637.044Zm4.519,9.127c-1.381-.089-1.4-2.59,0-2.59C522.723,643.581,522.705,646.082,521.342,646.171Zm3.748,0c-1.381-.089-1.4-2.59,0-2.59Zm0-3.786a2.127,2.127,0,0,0-1.883,1.465,2.1,2.1,0,0,0-1.865-1.465,2.142,2.142,0,0,0-1.9,1.518v-6.859a7.318,7.318,0,0,1-.233-4.465c.771-2.376,2.69-3.7,4.286-4.93a1.465,1.465,0,0,1,.072-.786,3.31,3.31,0,0,1,1.291-1.447.483.483,0,0,0,.144-.125h.09Zm155.878-99.772h-.018v-3.519h.018C683.246,539.094,683.228,542.506,680.969,542.613Zm6.151,0c-2.26-.107-2.278-3.519,0-3.519C689.415,539.094,689.38,542.506,687.12,542.613Zm3.12-12.449v9.359a3.394,3.394,0,0,0-6.2-.071,3.41,3.41,0,0,0-3.067-1.983h-.018V514.143h.143c1.094.732,2.834,1.625,2.493,3.215,2.618,1.679,5.775,3.483,7.03,6.734A8.472,8.472,0,0,1,690.24,530.164Zm7.407,12.449c-2.26-.107-2.278-3.519,0-3.519C699.942,539.094,699.907,542.506,697.647,542.613Zm6.151,0c-2.26-.107-2.278-3.519,0-3.519C706.094,539.094,706.076,542.506,703.8,542.613Zm6.151,0c-2.26-.107-2.278-3.519,0-3.519C712.245,539.094,712.227,542.506,709.949,542.613Zm3.138-12.449v9.413a9.1,9.1,0,0,1-9.289-2.108,3.41,3.41,0,0,0-3.067,1.983,3.377,3.377,0,0,0-6.2.125v-9.413a8.472,8.472,0,0,1-.377-6.073c1.255-3.251,4.412-5.055,7.03-6.734a1.752,1.752,0,0,1,.108-1.09,5.058,5.058,0,0,1,2.152-1.965,2.612,2.612,0,0,1,.233-.161h.269c.072.054.161.107.233.161a5.016,5.016,0,0,1,2.134,1.965,1.9,1.9,0,0,1,.126,1.09c2.618,1.679,5.775,3.483,7.03,6.734A8.471,8.471,0,0,1,713.088,530.164Zm7.407,12.449c-2.278-.107-2.3-3.519,0-3.519C722.772,539.094,722.754,542.506,720.494,542.613Zm6.151,0c-2.278-.107-2.3-3.519,0-3.519Zm0-5.144a3.457,3.457,0,0,0-3.085,1.983,3.38,3.38,0,0,0-6.187.071v-9.359a8.472,8.472,0,0,1-.377-6.073c1.255-3.251,4.412-5.055,7.03-6.734a1.753,1.753,0,0,1,.108-1.09,5.059,5.059,0,0,1,2.152-1.965,2.623,2.623,0,0,1,.233-.161h.125Zm234.409,108.6v-3.447C963.3,642.617,963.279,645.957,961.055,646.064Zm6.044,0c-2.224-.107-2.242-3.447,0-3.447S969.322,645.957,967.1,646.064Zm3.049-12.2v9.181a8.84,8.84,0,0,1-9.092-2.018v-22.88h.126c1.094.732,2.8,1.608,2.439,3.161,2.582,1.643,5.667,3.411,6.9,6.591A8.372,8.372,0,0,1,970.147,633.865Zm7.263,12.2c-2.224-.107-2.242-3.447,0-3.447S979.634,645.957,977.41,646.064Zm6.044,0c-2.224-.107-2.242-3.447,0-3.447C985.678,642.617,985.659,645.957,983.454,646.064Zm6.026,0c-2.224-.107-2.242-3.447,0-3.447S991.7,645.957,989.479,646.064Zm3.067-12.2v9.216a8.932,8.932,0,0,1-9.092-2.054,3.331,3.331,0,0,1-6.044,0,3.377,3.377,0,0,0-3.067,2.054v-9.216a8.274,8.274,0,0,1-.359-5.966c1.237-3.179,4.322-4.948,6.886-6.591a1.832,1.832,0,0,1,.108-1.072,5.06,5.06,0,0,1,2.1-1.929,2.629,2.629,0,0,0,.233-.161h.269c.072.054.161.107.233.161a5.059,5.059,0,0,1,2.1,1.929,1.831,1.831,0,0,1,.108,1.072c2.565,1.643,5.667,3.411,6.886,6.591A8.275,8.275,0,0,1,992.546,633.865Zm7.245,12.2c-2.206-.107-2.242-3.447,0-3.447S1002.015,645.957,999.791,646.064Zm6.044,0a1.7,1.7,0,0,1-1.668-1.768,1.608,1.608,0,0,1,1.668-1.679Zm0-5.037a3.331,3.331,0,0,1-6.044,0,3.368,3.368,0,0,0-3.049,2.018v-9.181a8.371,8.371,0,0,1-.377-5.966c1.237-3.179,4.34-4.948,6.9-6.591a1.7,1.7,0,0,1,.108-1.072,5.06,5.06,0,0,1,2.1-1.929c.072-.054.162-.107.233-.161h.126Zm108.157,107.881h-.018v-2.59h.018A1.3,1.3,0,0,1,1113.992,748.908Zm4.5,0a1.3,1.3,0,0,1,0-2.59A1.3,1.3,0,0,1,1118.493,748.908Zm2.3-9.127v6.859a2.551,2.551,0,0,0-2.3-1.5,2.52,2.52,0,0,0-2.26,1.447,2.474,2.474,0,0,0-2.242-1.447h-.018V728.046h.108c.807.536,2.08,1.179,1.829,2.34,1.919,1.232,4.214,2.554,5.147,4.93A6.206,6.206,0,0,1,1120.789,739.781Zm5.416,9.127a1.3,1.3,0,0,1,0-2.59A1.3,1.3,0,0,1,1126.2,748.908Zm4.519,0a1.3,1.3,0,0,1,0-2.59A1.3,1.3,0,0,1,1130.724,748.908Zm4.5,0a1.3,1.3,0,0,1,0-2.59A1.3,1.3,0,0,1,1135.225,748.908Zm2.3-9.127v6.894a2.516,2.516,0,0,0-2.3-1.536,2.474,2.474,0,0,0-2.242,1.447,6.428,6.428,0,0,1-6.779-1.447,2.51,2.51,0,0,0-2.278,1.536v-6.894a6.306,6.306,0,0,1-.287-4.465c.932-2.375,3.228-3.7,5.165-4.93a1.2,1.2,0,0,1,.072-.786,3.726,3.726,0,0,1,1.578-1.447l.161-.107h.2a1.547,1.547,0,0,1,.179.107,3.681,3.681,0,0,1,1.56,1.447,1.328,1.328,0,0,1,.09.786c1.919,1.232,4.232,2.554,5.147,4.93A6.206,6.206,0,0,1,1137.521,739.781Zm5.416,9.127a1.3,1.3,0,0,1,0-2.59A1.3,1.3,0,0,1,1142.937,748.908Zm4.519,0a1.292,1.292,0,0,1-1.255-1.34,1.2,1.2,0,0,1,1.255-1.25Zm0-3.769a2.488,2.488,0,0,1-4.519,0,2.526,2.526,0,0,0-2.278,1.5v-6.859a6.206,6.206,0,0,1-.269-4.465c.915-2.375,3.228-3.7,5.147-4.93a1.329,1.329,0,0,1,.09-.786,3.682,3.682,0,0,1,1.56-1.447,1.558,1.558,0,0,1,.179-.107h.09Zm85.848-25.934a.018.018,0,0,0-.018-.018v-2.572h.018A1.3,1.3,0,0,1,1233.3,719.205Zm4.5,0a1.3,1.3,0,0,1,0-2.59A1.3,1.3,0,0,1,1237.805,719.205Zm2.3-9.127v6.859a2.567,2.567,0,0,0-2.3-1.518,2.536,2.536,0,0,0-2.26,1.465,2.49,2.49,0,0,0-2.242-1.465h-.018V698.326h.108c.807.554,2.08,1.2,1.829,2.358,1.919,1.232,4.214,2.554,5.147,4.93A6.207,6.207,0,0,1,1240.1,710.078Zm5.416,9.127a1.3,1.3,0,0,1,0-2.59A1.3,1.3,0,0,1,1245.516,719.205Zm4.519,0a1.3,1.3,0,0,1,0-2.59A1.3,1.3,0,0,1,1250.036,719.205Zm4.5,0a1.3,1.3,0,0,1,0-2.59A1.3,1.3,0,0,1,1254.537,719.205Zm2.3-9.127v6.894a2.531,2.531,0,0,0-2.3-1.554,2.49,2.49,0,0,0-2.242,1.465,6.375,6.375,0,0,1-6.779-1.465,2.507,2.507,0,0,0-2.278,1.554v-6.894a6.3,6.3,0,0,1-.287-4.465c.933-2.376,3.228-3.7,5.165-4.93a1.185,1.185,0,0,1,.072-.786,3.616,3.616,0,0,1,1.578-1.447.994.994,0,0,0,.161-.125h.2c.072.053.125.089.179.125a3.575,3.575,0,0,1,1.56,1.447,1.313,1.313,0,0,1,.09.786c1.919,1.232,4.232,2.554,5.147,4.93A6.207,6.207,0,0,1,1256.832,710.078Zm5.416,9.127a1.3,1.3,0,0,1,0-2.59A1.3,1.3,0,0,1,1262.249,719.205Zm4.519,0a1.3,1.3,0,0,1,0-2.59Zm0-3.786a2.475,2.475,0,0,1-4.519,0,2.542,2.542,0,0,0-2.278,1.518v-6.859a6.208,6.208,0,0,1-.269-4.465c.915-2.376,3.228-3.7,5.147-4.93a1.313,1.313,0,0,1,.09-.786,3.575,3.575,0,0,1,1.56-1.447c.054-.036.108-.072.179-.125h.09ZM1387.353,577.3v-4.287C1389.666,573.013,1389.648,577.138,1387.353,577.3Zm6.205,0c-2.278-.161-2.3-4.287,0-4.287S1395.835,577.138,1393.558,577.3Zm3.138-15.11v11.36a3.52,3.52,0,0,0-3.138-2.5,3.2,3.2,0,0,1-6.205,0V542.756h.125c1.112.893,2.869,1.965,2.511,3.894,2.636,2.036,5.811,4.233,7.084,8.162A12.341,12.341,0,0,1,1396.7,562.189Zm7.46,15.11c-2.278-.161-2.3-4.287,0-4.287C1406.47,573.013,1406.434,577.138,1404.156,577.3Zm6.2,0c-2.277-.161-2.313-4.287,0-4.287C1412.657,573.013,1412.639,577.138,1410.361,577.3Zm6.187,0c-2.277-.161-2.3-4.287,0-4.287C1418.862,573.013,1418.844,577.138,1416.549,577.3Zm3.156-15.11V573.6a3.518,3.518,0,0,0-3.156-2.554,3.473,3.473,0,0,0-3.085,2.411,3.514,3.514,0,0,0-3.1-2.411,3.2,3.2,0,0,1-6.2,0,3.516,3.516,0,0,0-3.138,2.554V562.189a12.208,12.208,0,0,1-.394-7.377c1.273-3.929,4.448-6.126,7.084-8.162a2.745,2.745,0,0,1,.125-1.322,5.635,5.635,0,0,1,2.152-2.393c.072-.054.161-.125.233-.179h.269c.09.054.161.125.251.179a5.75,5.75,0,0,1,2.152,2.393,2.536,2.536,0,0,1,.108,1.322c2.636,2.036,5.81,4.233,7.084,8.162A12.34,12.34,0,0,1,1419.7,562.189Zm7.46,15.11c-2.3-.161-2.314-4.287,0-4.287C1429.461,573.013,1429.443,577.138,1427.165,577.3Zm6.2-.018-.018.018c-2.278-.161-2.3-4.287,0-4.287l.018.018Zm0-6.233h-.018a3.473,3.473,0,0,0-3.085,2.411,3.211,3.211,0,0,0-6.241.089v-11.36a12.206,12.206,0,0,1-.395-7.377c1.273-3.929,4.448-6.126,7.084-8.162a2.739,2.739,0,0,1,.125-1.322,5.635,5.635,0,0,1,2.152-2.393c.072-.054.161-.125.233-.179h.143Zm186.6,75.016v-3.447C1622.211,642.617,1622.193,645.957,1619.969,646.064Zm6.044,0c-2.224-.107-2.242-3.447,0-3.447S1628.218,645.957,1626.012,646.064Zm3.049-12.2v9.181a8.84,8.84,0,0,1-9.092-2.018v-22.88h.125c1.076.732,2.78,1.608,2.439,3.161,2.565,1.643,5.667,3.411,6.886,6.591A8.274,8.274,0,0,1,1629.061,633.865Zm7.263,12.2c-2.224-.107-2.242-3.447,0-3.447S1638.548,645.957,1636.324,646.064Zm6.026,0c-2.206-.107-2.242-3.447,0-3.447S1644.573,645.957,1642.35,646.064Zm6.044,0c-2.224-.107-2.242-3.447,0-3.447S1650.617,645.957,1648.393,646.064Zm3.067-12.2v9.216a8.988,8.988,0,0,1-9.11-2.054,3.317,3.317,0,0,1-6.026,0,3.358,3.358,0,0,0-3.067,2.054v-9.216a8.276,8.276,0,0,1-.359-5.966c1.22-3.179,4.322-4.948,6.887-6.591a1.831,1.831,0,0,1,.108-1.072,5.059,5.059,0,0,1,2.1-1.929c.072-.054.161-.107.233-.161h.269a2.59,2.59,0,0,0,.233.161,5.06,5.06,0,0,1,2.1,1.929,1.833,1.833,0,0,1,.108,1.072c2.565,1.643,5.649,3.411,6.886,6.591A8.37,8.37,0,0,1,1651.46,633.865Zm7.245,12.2c-2.224-.107-2.242-3.447,0-3.447S1660.929,645.957,1658.705,646.064Zm6.044,0h-.018c-2.206-.107-2.224-3.447,0-3.447h.018Zm0-5.037h-.018a3.337,3.337,0,0,0-2.995,1.929,3.328,3.328,0,0,0-6.08.089v-9.181a8.372,8.372,0,0,1-.376-5.966c1.237-3.179,4.322-4.948,6.9-6.591a1.7,1.7,0,0,1,.108-1.072,5.061,5.061,0,0,1,2.1-1.929,2.662,2.662,0,0,1,.233-.161h.125Z" transform="translate(172.06 -25.25)" fill="#9c9c9c" fill-rule="evenodd" opacity="0.06"/></g></svg>