<?xml version="1.0" encoding="UTF-8"?><svg id="Layer_1" xmlns="http://www.w3.org/2000/svg" viewBox="0 0 1280 1080"><defs><style>.cls-1{fill:#757679;}.cls-1,.cls-2,.cls-3{isolation:isolate;opacity:.3;}.cls-1,.cls-2,.cls-3,.cls-4,.cls-5,.cls-6,.cls-7{stroke-width:0px;}.cls-2,.cls-4{fill:#5c5d60;}.cls-3{fill:#d1d3d4;}.cls-5{fill:#ff9200;}.cls-6{fill:#65695b;}.cls-7{fill:#093;}</style></defs><path class="cls-7" d="m596.9,225.77c2.54-4.86,1.85-7.91-4.17-9.29-31.65-7.31-48.88-29.71-60.23-58.13-2.01-27.04,3.23-51.67,24.78-70.21,10.67-9.16,22.78-15.22,40.97-12.49-10.29,10.45-19.86,17.44-25.76,27.73-12.93,22.62-8.82,52.52,9.85,69.11,20.11,17.88,48.88,18.6,71.24,1.07,6.31-4.93,11.29-11.61,16.88-17.47,10.63,1.54,4.55,8.53,4.42,13.58-7.44,25.79-25.76,39.72-50.57,46.68-5.84,1.63-14.05-.41-15.06,9.22-4.08,3.54-8.19,3.54-12.36.19h0Z"/><path class="cls-6" d="m867.51,612.36c-2.82,64.91-34.63,114.47-86.59,149.86-53.8,36.64-110.68,68.77-165.92,103.27-8.82,5.49-15.53,5.36-24.28-.09-55.28-34.51-111.05-68.2-166.24-102.8-62.9-39.43-98.66-121.03-82.04-185.56,1.47-5.71,3.45-11.33,5.8-16.72,3.73-8.56,9.13-12.93,15.28-2.26,37.52,65,98.44,105.06,155.92,149.39,33.66,25.98,59.1,60.08,73.94,100.95,1.69,4.67,2.67,11.39,8.5,12.05,7.94.91,8.53-7.09,10.45-12.14,19.67-51.86,55.25-91.2,100.17-121.5,50.41-34.01,94.96-73.16,127.02-125.3,9.35-15.18,15.03-10.13,19.89,2.79,5.8,15.4,8.97,31.31,8.06,48.03l.03.03Z"/><path class="cls-2" d="m868.8,601.1c-2.82,64.91-34.63,114.47-86.59,149.86-53.8,36.64-110.68,68.77-165.92,103.27-8.82,5.49-15.53,5.36-24.28-.09-55.28-34.51-111.05-68.2-166.24-102.8-62.9-39.43-98.66-121.03-82.04-185.56,1.47-5.71,3.45-11.33,5.8-16.72,3.73-8.56,9.13-12.93,15.28-2.26,37.52,65,98.44,105.06,155.92,149.39,33.66,25.98,59.1,60.08,73.94,100.95,1.69,4.67,2.67,11.39,8.5,12.05,7.94.91,8.53-7.09,10.45-12.14,19.67-51.86,55.25-91.2,100.17-121.5,50.41-34.01,94.96-73.16,127.02-125.3,9.35-15.18,15.03-10.13,19.89,2.79,5.8,15.4,8.97,31.31,8.06,48.03l.03.03Z"/><path class="cls-1" d="m872.34,577.32c-2.82,64.91-34.63,114.47-86.59,149.86-53.8,36.64-110.68,68.77-165.92,103.27-8.82,5.49-15.53,5.36-24.28-.09-55.28-34.51-111.05-68.2-166.24-102.8-62.9-39.43-98.66-121.03-82.04-185.56,1.47-5.71,3.45-11.33,5.8-16.72,3.73-8.56,9.13-12.93,15.28-2.26,37.52,65,98.44,105.06,155.92,149.39,33.66,25.98,59.1,60.08,73.94,100.95,1.69,4.67,2.67,11.39,8.5,12.05,7.94.91,8.53-7.09,10.45-12.14,19.67-51.86,55.25-91.2,100.17-121.5,50.41-34.01,94.96-73.16,127.02-125.3,9.35-15.18,15.03-10.13,19.89,2.79,5.8,15.4,8.97,31.31,8.06,48.03l.03.03Z"/><path class="cls-3" d="m869.33,599.91c-2.82,52.52-34.63,92.64-86.55,121.28-53.77,29.65-110.65,55.65-165.86,83.6-8.82,4.45-15.53,4.36-24.28-.06-55.25-27.92-111.02-55.21-166.21-83.2-62.87-31.9-98.63-97.94-82-150.18,1.47-4.61,3.45-9.16,5.8-13.55,3.73-6.93,9.13-10.48,15.28-1.82,37.52,52.61,98.44,85.02,155.88,120.91,33.63,21.02,59.07,48.63,73.91,81.69,1.69,3.8,2.67,9.22,8.5,9.76,7.94.75,8.53-5.74,10.45-9.82,19.67-41.94,55.25-73.82,100.14-98.32,50.41-27.51,94.93-59.2,126.99-101.39,9.32-12.27,15.03-8.19,19.89,2.26,5.8,12.49,8.97,25.32,8.06,38.87v-.03Z"/><path class="cls-7" d="m596.9,225.77c4.11-.06,8.22-.13,12.36-.19,12.2-.09,19.92,9.1,29.18,14.68,48.16,29.08,97.06,57.19,143.65,88.66,55.28,37.33,88.15,88.94,87.43,158.14-.06,5.18-.16,10.45-1.22,15.5-2.82,13.55-2.45,32.59-15.81,36.52-10.2,2.98-14.27-16.03-20.86-25.19-26.23-36.52-57.69-67.39-94.4-93.2-77.77-54.68-93.14-73.28-132.14-158.9-6.18,14.43-11.07,27.92-17.54,40.59-23.4,46.12-58.88,81.44-101.58,109.58-47.72,31.47-87.68,70.3-118.24,118.71-2.57,4.05-3.95,11.11-10.45,9.69-5.4-1.16-6.65-7.5-8.28-12.23-18.04-51.89-6.05-99.2,22.74-143.56,13.43-20.67,30.52-38.4,50.95-52.17,56.44-38.15,115.35-72.31,174.21-106.6v-.03Z"/><polygon class="cls-5" points="448.36 538.92 448.36 499.08 482.86 519 517.37 538.92 482.86 558.84 448.36 578.76 448.36 538.92"/><path class="cls-4" d="m593.89,876.26c-47.28,28.67-93.3,56.56-142.77,86.55-.19-6.81-1.6-11.92-.25-16.12,5.33-16.5,15.15-28.64,31.72-36.58,14.31-6.87,26.92-17.38,39.87-26.82,4.55-3.29,9.13-7.65,11.45-12.58,1.88-3.98,2.26-11.26-.19-13.9-2.45-2.67-10.04-3.36-13.83-1.6-9.98,4.61-19.14,11.04-28.89,16.91,2.2-15.62,20.67-34.6,34.95-35.98,1.66-.16,3.67.78,5.21,1.73,20.49,12.45,40.88,24.97,62.77,38.37l-.03.03Z"/><path class="cls-4" d="m610.58,876.23c22.18-13.52,42.88-26.26,63.72-38.74,1.6-.97,4.55-1.25,6.15-.44,14.84,7.59,30.37,14.68,34.01,35.54-10.2-6.09-19.11-12.42-28.89-16.82-4.17-1.88-12.3-1.66-14.71,1.07-2.48,2.79-2.16,11.45.44,14.68,6.37,7.91,14.37,14.71,22.52,20.89,8.78,6.68,17.88,13.62,27.95,17.79,17.1,7.06,26.35,19.95,31.78,36.39,1.38,4.14.22,9.1.22,16.41-49.44-29.96-95.65-57.97-143.21-86.8l.03.03Z"/><path class="cls-4" d="m536.92,862.83c-15.81,9.76-28.49,17.57-41.85,25.82-2.04-2.89-3.92-5.52-6.49-9.16,12.61-7.09,24.44-14.05,36.67-20.2,2.01-1,5.9,1.66,11.67,3.51v.03Z"/><path class="cls-4" d="m715.23,879.96c-1.82,2.92-3.39,5.43-5.49,8.82-13.27-8.16-26.1-16.03-39.06-23.97,7.62-8.5,11.48-7.18,44.55,15.15Z"/><path class="cls-5" d="m795.1,545.41h-14.87v-14.24h14.87v14.24Z"/><path class="cls-5" d="m543.72,531.17h14.43v14.24h-14.43v-14.24Z"/><path class="cls-5" d="m706.2,577.45h-14.74v-78.33h14.74v78.33Z"/><path class="cls-5" d="m602.86,509.81h14.74v56.97h-14.74v-56.97Z"/><path class="cls-5" d="m735.53,566.78h-14.21v-56.97h14.21v56.97Z"/><path class="cls-5" d="m662.28,509.81h14.27v56.94h-14.27v-56.94Z"/><path class="cls-5" d="m573.56,520.51h14.27v35.58h-14.27v-35.58Z"/><path class="cls-5" d="m646.84,556.08h-14.21v-35.61h14.21v35.61Z"/><path class="cls-5" d="m751,520.51h14.27v35.58h-14.27v-35.58Z"/></svg>