<?xml version="1.0" encoding="UTF-8"?><svg id="Layer_1" xmlns="http://www.w3.org/2000/svg" viewBox="0 0 1280 1080"><defs><style>.cls-1{letter-spacing:-.02em;}.cls-2{fill:#757679;}.cls-2,.cls-3,.cls-4{isolation:isolate;opacity:.3;}.cls-2,.cls-3,.cls-4,.cls-5,.cls-6,.cls-7,.cls-8{stroke-width:0px;}.cls-3,.cls-5{fill:#5c5d60;}.cls-4{fill:#d1d3d4;}.cls-9{letter-spacing:-.05em;}.cls-10,.cls-11{font-family:MahmoudArt-Bold, MahmoudArt;font-size:113.17px;font-weight:700;}.cls-10,.cls-8{fill:#093;}.cls-11,.cls-6{fill:#ff9200;}.cls-12{letter-spacing:-.02em;}.cls-7{fill:#65695b;}</style></defs><path class="cls-8" d="m633.71,168.75c2.14-4.09,1.56-6.65-3.51-7.81-26.61-6.14-41.09-24.98-50.64-48.87-1.69-22.73,2.72-43.44,20.83-59.02,8.97-7.7,19.15-12.79,34.44-10.5-8.65,8.78-16.69,14.66-21.65,23.31-10.87,19.01-7.41,44.15,8.28,58.1,16.91,15.03,41.09,15.64,59.89.9,5.3-4.14,9.49-9.76,14.19-14.69,8.94,1.29,3.82,7.17,3.72,11.42-6.25,21.68-21.65,33.39-42.51,39.24-4.91,1.37-11.82-.34-12.66,7.75-3.43,2.98-6.88,2.98-10.39.16h0Z"/><path class="cls-7" d="m861.2,493.74c-2.37,54.57-29.12,96.24-72.79,125.98-45.23,30.8-93.04,57.81-139.49,86.82-7.41,4.62-13.05,4.51-20.41-.08-46.47-29.01-93.36-57.33-139.75-86.42-52.88-33.15-82.94-101.75-68.97-156,1.24-4.8,2.9-9.52,4.88-14.06,3.14-7.2,7.67-10.87,12.84-1.9,31.54,54.64,82.76,88.32,131.07,125.59,28.3,21.84,49.69,50.5,62.16,84.87,1.42,3.93,2.24,9.57,7.15,10.13,6.67.76,7.17-5.96,8.78-10.21,16.54-43.59,46.44-76.67,84.21-102.14,42.38-28.59,79.83-61.5,106.78-105.33,7.86-12.76,12.63-8.52,16.72,2.35,4.88,12.95,7.54,26.32,6.78,40.38l.03.03Z"/><path class="cls-3" d="m862.28,484.28c-2.37,54.57-29.12,96.24-72.79,125.98-45.23,30.8-93.04,57.81-139.49,86.82-7.41,4.62-13.05,4.51-20.41-.08-46.47-29.01-93.36-57.33-139.75-86.42-52.88-33.15-82.94-101.75-68.97-156,1.24-4.8,2.9-9.52,4.88-14.06,3.14-7.2,7.67-10.87,12.84-1.9,31.54,54.64,82.76,88.32,131.07,125.59,28.3,21.84,49.69,50.5,62.16,84.87,1.42,3.93,2.24,9.57,7.15,10.13,6.67.76,7.17-5.96,8.78-10.21,16.54-43.59,46.44-76.67,84.21-102.14,42.38-28.59,79.83-61.5,106.78-105.33,7.86-12.76,12.63-8.52,16.72,2.35,4.88,12.95,7.54,26.32,6.78,40.38l.03.03Z"/><path class="cls-2" d="m865.26,464.28c-2.37,54.57-29.12,96.24-72.79,125.98-45.23,30.8-93.04,57.81-139.49,86.82-7.41,4.62-13.05,4.51-20.41-.08-46.47-29.01-93.36-57.33-139.75-86.42-52.88-33.15-82.94-101.75-68.97-156,1.24-4.8,2.9-9.52,4.88-14.06,3.14-7.2,7.67-10.87,12.84-1.9,31.54,54.64,82.76,88.32,131.07,125.59,28.3,21.84,49.69,50.5,62.16,84.87,1.42,3.93,2.24,9.57,7.15,10.13,6.67.76,7.17-5.96,8.78-10.21,16.54-43.59,46.44-76.67,84.21-102.14,42.38-28.59,79.83-61.5,106.78-105.33,7.86-12.76,12.63-8.52,16.72,2.35,4.88,12.95,7.54,26.32,6.78,40.38l.03.03Z"/><path class="cls-4" d="m862.73,483.27c-2.37,44.15-29.12,77.88-72.76,101.96-45.2,24.92-93.02,46.79-139.43,70.28-7.41,3.74-13.05,3.67-20.41-.05-46.44-23.47-93.33-46.42-139.72-69.94-52.85-26.82-82.92-82.34-68.94-126.25,1.24-3.88,2.9-7.7,4.88-11.39,3.14-5.83,7.67-8.81,12.84-1.53,31.54,44.23,82.76,71.47,131.05,101.64,28.27,17.67,49.66,40.88,62.13,68.68,1.42,3.19,2.24,7.75,7.15,8.2,6.67.63,7.17-4.83,8.78-8.25,16.54-35.26,46.44-62.06,84.18-82.65,42.38-23.13,79.8-49.77,106.76-85.24,7.83-10.31,12.63-6.88,16.72,1.9,4.88,10.5,7.54,21.28,6.78,32.68v-.03Z"/><path class="cls-8" d="m633.71,168.75c3.45-.05,6.91-.11,10.39-.16,10.26-.08,16.75,7.65,24.53,12.34,40.48,24.45,81.6,48.08,120.76,74.53,46.47,31.38,74.11,74.77,73.5,132.95-.05,4.35-.13,8.78-1.03,13.03-2.37,11.39-2.06,27.4-13.29,30.7-8.57,2.51-12-13.48-17.54-21.18-22.05-30.7-48.5-56.65-79.36-78.35-65.38-45.97-78.3-61.61-111.08-133.58-5.2,12.13-9.31,23.47-14.74,34.13-19.67,38.77-49.5,68.46-85.4,92.12-40.11,26.45-73.71,59.1-99.4,99.8-2.16,3.4-3.32,9.34-8.78,8.15-4.54-.98-5.59-6.3-6.96-10.29-15.16-43.62-5.09-83.39,19.12-120.68,11.29-17.38,25.66-32.28,42.83-43.86,47.45-32.07,96.97-60.79,146.45-89.62v-.03Z"/><polygon class="cls-6" points="508.83 432 508.83 398.51 537.84 415.26 566.85 432 537.84 448.75 508.83 465.5 508.83 432"/><path class="cls-5" d="m631.18,715.59c-39.74,24.1-78.43,47.55-120.02,72.76-.16-5.72-1.35-10.02-.21-13.56,4.48-13.87,12.74-24.08,26.66-30.75,12.03-5.78,22.63-14.61,33.52-22.55,3.82-2.77,7.67-6.44,9.63-10.58,1.58-3.35,1.9-9.47-.16-11.68-2.06-2.24-8.44-2.82-11.63-1.35-8.39,3.88-16.09,9.28-24.29,14.22,1.85-13.13,17.38-29.09,29.38-30.25,1.4-.13,3.09.66,4.38,1.45,17.22,10.47,34.36,20.99,52.77,32.25l-.03.03Z"/><path class="cls-5" d="m645.21,715.57c18.65-11.37,36.05-22.07,53.56-32.57,1.35-.82,3.82-1.05,5.17-.37,12.47,6.38,25.53,12.34,28.59,29.88-8.57-5.12-16.06-10.44-24.29-14.14-3.51-1.58-10.34-1.4-12.37.9-2.08,2.35-1.82,9.63.37,12.34,5.35,6.65,12.08,12.37,18.94,17.56,7.38,5.62,15.03,11.45,23.5,14.95,14.37,5.93,22.15,16.77,26.72,30.59,1.16,3.48.18,7.65.18,13.79-41.56-25.19-80.41-48.74-120.39-72.97l.03.03Z"/><path class="cls-5" d="m583.28,704.31c-13.29,8.2-23.95,14.77-35.18,21.7-1.71-2.43-3.3-4.64-5.46-7.7,10.6-5.96,20.54-11.82,30.83-16.98,1.69-.84,4.96,1.4,9.81,2.95v.03Z"/><path class="cls-5" d="m733.19,718.71c-1.53,2.45-2.85,4.56-4.62,7.41-11.16-6.86-21.94-13.48-32.83-20.15,6.41-7.15,9.65-6.04,37.45,12.74Z"/><text class="cls-11" transform="translate(346.75 899.33)"><tspan class="cls-9" x="0" y="0">W</tspan><tspan class="cls-12" x="101.4" y="0">a</tspan><tspan x="159" y="0">y2</tspan></text><text class="cls-10" transform="translate(632.1 899.33)"><tspan x="0" y="0">Qu</tspan><tspan class="cls-1" x="144.06" y="0">r</tspan><tspan x="181.97" y="0">an</tspan></text><path class="cls-8" d="m357.9,938.87v-8.99c-1.95,2.14-4.01,2.9-6.04,2.9-5.2,0-10.5-5.04-15.59-5.04-1.95,0-3.82.76-5.72,2.8v8.81c1.95-1.85,3.93-2.43,5.88-2.43,5.2,0,10.31,4.46,15.51,4.46,1.95,0,4.01-.69,5.96-2.51h0Z"/><rect class="cls-8" x="424.04" y="947.68" width="11.34" height="12.87"/><rect class="cls-8" x="409.64" y="947.68" width="11.34" height="12.87"/><rect class="cls-6" x="762.38" y="947.68" width="11.34" height="12.87"/><rect class="cls-6" x="747.98" y="947.68" width="11.34" height="12.87"/><path class="cls-8" d="m312.62,1008.39c0,4.25-1.37,7.83-3.93,10.84-2.64,3.01-5.88,4.46-9.55,4.46s-6.91-1.45-9.55-4.46-3.93-6.57-3.93-10.84v-24.08l-11.34-5.62v29.67c0,7.83,2.37,14.4,7.25,19.91,4.85,5.51,10.65,8.23,17.56,8.23s12.71-2.72,17.49-8.23c4.85-5.51,7.33-12.08,7.33-19.91v-43.12h-11.34v43.15Z"/><rect class="cls-8" x="292.18" y="965.27" width="11.34" height="12.87"/><rect class="cls-8" x="337.62" y="947.68" width="11.34" height="66.88"/><path class="cls-8" d="m374.09,965.27h-11.34v40.11c0,8.12-4.93,15.27-11.76,15.27v12.87c9.55,0,18.67-7.73,21.73-18.94h13.37v-12.87h-12.03v-36.45h.03Z"/><path class="cls-8" d="m446.88,990.4c-.5-13.93-11.68-25.24-24.71-25.24-14.93,0-23.68,13.16-23.68,25.9,0,3.67.69,7.36,2.14,10.63h-14.48v12.87h72.97v-12.87h-12.18v-11.31l-.05.03Zm-11.34,11.31h-12.53c-5.8,0-13.56-2.43-13.56-11.02,0-6.2,4.93-12.66,12.71-12.66,7.15,0,13.48,6.09,13.48,13.82,0,3.38-.08,6.57-.08,9.86h-.03Z"/><polygon class="cls-8" points="471.2 1001.71 459.09 1001.71 459.09 1014.56 482.54 1014.56 482.54 947.75 471.2 947.75 471.2 1001.71"/><rect class="cls-8" x="496.94" y="947.68" width="11.34" height="66.88"/><rect class="cls-6" x="554.48" y="1020.76" width="11.34" height="12.87"/><rect class="cls-6" x="568.81" y="1020.76" width="11.34" height="12.87"/><path class="cls-6" d="m624.72,988.18c-.95-12.76-10.5-23-21.73-23-11.84,0-21.81,11.5-21.73,25.03l.08,11.5h-17.72c-6.38,0-11.6-5.41-11.6-11.79,0-4.06,1.87-7.83,5.54-10.15v-13.74c-10.05,2.8-16.88,12.95-16.88,23.87,0,12.76,9.47,23.79,20.97,24.55l30.94.11v-24.37c0-6.78,4.51-12.58,10.39-12.58s10.39,5.62,10.39,12.58v24.37h23.45v-12.87h-12.03l-.08-13.53.03.03Z"/><polygon class="cls-6" points="648.93 1001.71 636.82 1001.71 636.82 1014.56 660.27 1014.56 660.27 947.75 648.93 947.75 648.93 1001.71"/><rect class="cls-6" x="674.85" y="947.68" width="11.34" height="66.88"/><path class="cls-6" d="m679.89,1028.96c0-2.72,2.06-5.51,5.46-5.51.84,0,1.71.18,2.37.47v-5.7c-.76-.18-1.53-.29-2.37-.29-6.49,0-10.15,5.62-10.23,11.13,0,.58.08,1.16.16,1.74h-2.37v5.51h15.43v-5.51h-8.1c-.26-.58-.34-1.27-.34-1.85h0Z"/><path class="cls-6" d="m785.67,990.4c-.5-14-11.84-25.24-24.79-25.24-14.82,0-23.6,13.16-23.6,25.9,0,11.79,6.91,23.21,23.02,23.5h11.76c-1.79,4.06-5.62,6.2-9.39,6.2h-19.78c-7.41,0-13.48-6.86-13.48-15.27v-24.08l-11.34-5.62v29.67c0,15.45,11.16,28.14,24.79,28.14h19.78c9.71,0,18.59-7.54,21.81-19.04h13.29v-12.87h-12.11v-11.31l.03.03Zm-11.34,11.31h-13.48c-8.78,0-12.61-5.22-12.61-10.84,0-6.2,4.69-12.87,12.61-12.87,3.74,0,6.91,1.35,9.55,4.06,5.04,5.22,3.93,12.66,3.93,19.62v.03Z"/><polygon class="cls-6" points="821.3 965.27 809.96 965.27 809.96 1001.71 797.78 1001.71 797.78 1014.56 821.3 1014.56 821.3 965.27"/><rect class="cls-6" x="812.1" y="1020.76" width="11.34" height="12.87"/><rect class="cls-6" x="797.78" y="1020.76" width="11.34" height="12.87"/><path class="cls-6" d="m852.34,965.27h-11.34v40.11c0,8.12-4.93,15.27-11.76,15.27v12.87c9.55,0,18.67-7.73,21.73-18.94h13.37v-12.87h-12.03v-36.45h.03Z"/><path class="cls-6" d="m935.18,989.93c0-13.63-10.39-24.55-22.92-24.55h-24.71v-17.59h-11.34v53.93h-11.84v12.87h82.94v-12.87h-14.82c1.79-3.48,2.72-7.44,2.72-11.79h-.03Zm-22.92,11.79h-18.14l-6.57,5.7v-29.3h24.71c6.04,0,11.5,5.04,11.5,11.79s-5.27,11.79-11.5,11.79v.03Z"/><polygon class="cls-6" points="959.42 1001.71 947.31 1001.71 947.31 1014.56 970.73 1014.56 970.73 947.75 959.42 947.75 959.42 1001.71"/><rect class="cls-6" x="985.16" y="947.68" width="11.34" height="66.88"/><path class="cls-6" d="m800.33,437.46h-12.5v-11.97h12.5v11.97Z"/><path class="cls-6" d="m589.01,425.49h12.13v11.97h-12.13v-11.97Z"/><path class="cls-6" d="m725.59,464.39h-12.4v-65.85h12.4v65.85Z"/><path class="cls-6" d="m638.72,407.53h12.4v47.89h-12.4v-47.89Z"/><path class="cls-6" d="m750.25,455.42h-11.95v-47.89h11.95v47.89Z"/><path class="cls-6" d="m688.67,407.53h12v47.87h-12v-47.87Z"/><path class="cls-6" d="m614.09,416.52h12v29.91h-12v-29.91Z"/><path class="cls-6" d="m675.7,446.43h-11.95v-29.93h11.95v29.93Z"/><path class="cls-6" d="m763.25,416.52h12v29.91h-12v-29.91Z"/></svg>